M48
; DRILL file {KiCad (6.0.6)} date Mon Sep  9 22:51:23 2024
; FORMAT={-:-/ absolute / inch / decimal}
; #@! TF.CreationDate,2024-09-09T22:51:23-04:00
; #@! TF.GenerationSoftware,Kicad,Pcbnew,(6.0.6)
; #@! TF.FileFunction,Plated,1,4,PTH
FMAT,2
INCH
; #@! TA.AperFunction,Plated,PTH,ViaDrill
T1C0.0100
; #@! TA.AperFunction,Plated,PTH,ComponentDrill
T2C0.0236
; #@! TA.AperFunction,Plated,PTH,ComponentDrill
T3C0.0394
%
G90
G05
T1
X5.46Y-3.898
X5.46Y-4.332
X5.508Y-4.004
X5.52Y-3.892
X5.55Y-4.39
X5.552Y-4.136
X5.552Y-4.168
X5.572Y-3.668
X5.572Y-4.214
X5.572Y-4.704
X5.58Y-4.602
X5.608Y-4.822
X5.636Y-4.558
X5.662Y-3.668
X5.708Y-4.132
X5.714Y-3.856
X5.73Y-4.112
X5.734Y-4.2
X5.737Y-4.251
X5.752Y-4.388
X5.752Y-4.43
X5.834Y-3.944
X5.864Y-4.27
X5.864Y-4.29
X5.864Y-4.31
X5.882Y-3.84
X5.902Y-3.982
X5.916Y-4.822
X5.942Y-4.432
X5.966Y-4.192
X5.99Y-3.98
X5.996Y-3.842
X6.0Y-4.21
X6.028Y-4.23
X6.04Y-4.098
X6.052Y-3.568
X6.058Y-4.248
X6.06Y-3.66
X6.06Y-4.4
X6.109Y-4.229
X6.112Y-4.34
X6.114Y-3.802
X6.114Y-3.852
X6.12Y-4.398
X6.132Y-4.168
X6.152Y-4.212
X6.156Y-4.328
X6.156Y-4.734
X6.158Y-3.982
X6.172Y-3.934
X6.178Y-4.138
X6.184Y-4.35
X6.184Y-4.38
X6.188Y-4.25
X6.2Y-4.29
X6.2Y-4.486
X6.23Y-3.566
X6.27Y-4.62
X6.312Y-4.174
X6.324Y-4.346
X6.4Y-3.566
X6.4Y-3.986
X6.4Y-4.06
X6.434Y-4.168
X6.458Y-4.136
X6.478Y-4.254
X6.512Y-3.752
X6.512Y-3.804
X6.512Y-3.852
X6.512Y-3.902
X6.548Y-4.022
X6.548Y-4.098
X6.64Y-4.47
X6.642Y-4.254
X6.642Y-4.344
X6.642Y-4.57
X6.656Y-4.79
T2
X5.3213Y-4.092
X5.3213Y-4.4322
X5.4858Y-4.092
X5.4858Y-4.4322
T3
X5.3524Y-3.502
X5.3524Y-3.602
X5.3524Y-3.702
X5.3524Y-3.802
X5.3524Y-3.902
X5.3524Y-4.602
X5.3524Y-4.702
X5.3524Y-4.802
X5.3524Y-4.902
X5.3524Y-5.002
X5.4524Y-3.502
X5.4524Y-5.002
X5.5524Y-3.502
X5.5524Y-5.002
X5.6524Y-3.502
X5.6524Y-5.002
X5.7524Y-3.502
X5.7524Y-5.002
X5.8524Y-3.502
X5.8524Y-5.002
X5.9524Y-3.502
X5.9524Y-5.002
X6.0524Y-3.502
X6.0524Y-5.002
X6.1524Y-3.502
X6.1524Y-5.002
X6.2524Y-3.502
X6.2524Y-5.002
X6.3524Y-3.502
X6.3524Y-5.002
X6.4524Y-3.502
X6.4524Y-5.002
X6.5524Y-3.502
X6.5524Y-5.002
X6.6524Y-3.502
X6.6524Y-5.002
X6.752Y-4.602
X6.752Y-4.0
X6.752Y-4.1
X6.752Y-4.2
X6.752Y-4.3
X6.752Y-4.4
X6.752Y-4.5
X6.7524Y-3.502
X6.7524Y-3.902
X6.7524Y-5.002
X6.852Y-4.602
X6.852Y-4.702
X6.852Y-4.802
X6.852Y-4.902
X6.852Y-4.0
X6.852Y-4.1
X6.852Y-4.2
X6.852Y-4.3
X6.852Y-4.4
X6.852Y-4.5
X6.8524Y-3.502
X6.8524Y-3.602
X6.8524Y-3.702
X6.8524Y-3.802
X6.8524Y-3.902
X6.8524Y-5.002
T0
M30
