%TF.GenerationSoftware,KiCad,Pcbnew,(6.0.6)*%
%TF.CreationDate,2024-09-09T22:51:05-04:00*%
%TF.ProjectId,ta-expt-v2,74612d65-7870-4742-9d76-322e6b696361,rev?*%
%TF.SameCoordinates,Original*%
%TF.FileFunction,Legend,Top*%
%TF.FilePolarity,Positive*%
%FSLAX46Y46*%
G04 Gerber Fmt 4.6, Leading zero omitted, Abs format (unit mm)*
G04 Created by KiCad (PCBNEW (6.0.6)) date 2024-09-09 22:51:05*
%MOMM*%
%LPD*%
G01*
G04 APERTURE LIST*
%ADD10C,0.150000*%
%ADD11C,0.200000*%
%ADD12C,0.100000*%
%ADD13C,0.120000*%
%ADD14C,0.250000*%
G04 APERTURE END LIST*
D10*
%TO.C,U1*%
X141884495Y-98359980D02*
X141884495Y-99169504D01*
X141932114Y-99264742D01*
X141979733Y-99312361D01*
X142074971Y-99359980D01*
X142265447Y-99359980D01*
X142360685Y-99312361D01*
X142408304Y-99264742D01*
X142455923Y-99169504D01*
X142455923Y-98359980D01*
X143455923Y-99359980D02*
X142884495Y-99359980D01*
X143170209Y-99359980D02*
X143170209Y-98359980D01*
X143074971Y-98502838D01*
X142979733Y-98598076D01*
X142884495Y-98645695D01*
%TO.C,J5*%
X173716666Y-100252380D02*
X173716666Y-100966666D01*
X173669047Y-101109523D01*
X173573809Y-101204761D01*
X173430952Y-101252380D01*
X173335714Y-101252380D01*
X174669047Y-100252380D02*
X174192857Y-100252380D01*
X174145238Y-100728571D01*
X174192857Y-100680952D01*
X174288095Y-100633333D01*
X174526190Y-100633333D01*
X174621428Y-100680952D01*
X174669047Y-100728571D01*
X174716666Y-100823809D01*
X174716666Y-101061904D01*
X174669047Y-101157142D01*
X174621428Y-101204761D01*
X174526190Y-101252380D01*
X174288095Y-101252380D01*
X174192857Y-101204761D01*
X174145238Y-101157142D01*
D11*
%TO.C,FB1*%
X139801600Y-116590800D02*
X139801600Y-117190800D01*
%TO.C,LED1*%
X144375200Y-123516800D02*
X144375200Y-123516800D01*
X144475200Y-123516800D02*
X144475200Y-123516800D01*
X144475200Y-123516800D02*
X144475200Y-123516800D01*
X144475200Y-123516800D02*
G75*
G03*
X144375200Y-123516800I-50000J0D01*
G01*
X144475200Y-123516800D02*
G75*
G03*
X144375200Y-123516800I-50000J0D01*
G01*
X144375200Y-123516800D02*
G75*
G03*
X144475200Y-123516800I50000J0D01*
G01*
D12*
%TO.C,Y2*%
X163259200Y-115308000D02*
X163259200Y-114308000D01*
X161759200Y-115308000D02*
X161759200Y-114308000D01*
%TO.C,Y1*%
X161360800Y-109520000D02*
X161360800Y-108920000D01*
X162410800Y-107620000D02*
X162810800Y-107620000D01*
X164410800Y-110420000D02*
X164410800Y-110420000D01*
X162410800Y-110820000D02*
X162810800Y-110820000D01*
X164410800Y-110320000D02*
X164410800Y-110320000D01*
X163860800Y-109520000D02*
X163860800Y-108920000D01*
X164410800Y-110320000D02*
G75*
G03*
X164410800Y-110420000I0J-50000D01*
G01*
X164410800Y-110420000D02*
G75*
G03*
X164410800Y-110320000I0J50000D01*
G01*
D13*
%TO.C,U1*%
X142646400Y-97296800D02*
X140846400Y-97296800D01*
X142646400Y-97296800D02*
X143446400Y-97296800D01*
X142646400Y-100416800D02*
X143446400Y-100416800D01*
X142646400Y-100416800D02*
X141846400Y-100416800D01*
D11*
%TO.C,R7*%
X142829400Y-113944400D02*
X143479400Y-113944400D01*
%TO.C,IC1*%
X157812000Y-103554000D02*
X157812000Y-112854000D01*
X157812000Y-112854000D02*
X148512000Y-112854000D01*
X148512000Y-103554000D02*
X157812000Y-103554000D01*
X148512000Y-112854000D02*
X148512000Y-103554000D01*
D14*
X159512000Y-112704000D02*
G75*
G03*
X159512000Y-112704000I-125000J0D01*
G01*
D11*
%TO.C,R3*%
X154546400Y-119918600D02*
X154546400Y-120568600D01*
%TO.C,R2*%
X151752400Y-117012600D02*
X151752400Y-116362600D01*
%TO.C,R1*%
X148145600Y-117012600D02*
X148145600Y-116362600D01*
%TO.C,IC2*%
X162614800Y-99820400D02*
X158034800Y-99820400D01*
X158034800Y-99820400D02*
X158034800Y-94540400D01*
X155899800Y-94600400D02*
X157684800Y-94600400D01*
X162614800Y-94540400D02*
X162614800Y-99820400D01*
X158034800Y-94540400D02*
X162614800Y-94540400D01*
%TO.C,LED2*%
X148082000Y-123516800D02*
X148082000Y-123516800D01*
X148082000Y-123516800D02*
X148082000Y-123516800D01*
X147982000Y-123516800D02*
X147982000Y-123516800D01*
X148082000Y-123516800D02*
G75*
G03*
X147982000Y-123516800I-50000J0D01*
G01*
X147982000Y-123516800D02*
G75*
G03*
X148082000Y-123516800I50000J0D01*
G01*
X148082000Y-123516800D02*
G75*
G03*
X147982000Y-123516800I-50000J0D01*
G01*
%TO.C,C15*%
X160690400Y-125114400D02*
X166790400Y-125114400D01*
X160690400Y-118014400D02*
X160690400Y-125114400D01*
X166790400Y-118014400D02*
X160690400Y-118014400D01*
%TO.C,R5*%
X160286800Y-91663400D02*
X160286800Y-91013400D01*
%TO.C,R4*%
X154546400Y-123362600D02*
X154546400Y-122712600D01*
%TO.C,R6*%
X139009000Y-100888800D02*
X138359000Y-100888800D01*
%TD*%
M02*
