%TF.GenerationSoftware,KiCad,Pcbnew,(6.0.6)*%
%TF.CreationDate,2024-09-09T22:51:05-04:00*%
%TF.ProjectId,ta-expt-v2,74612d65-7870-4742-9d76-322e6b696361,rev?*%
%TF.SameCoordinates,Original*%
%TF.FileFunction,Copper,L4,Bot*%
%TF.FilePolarity,Positive*%
%FSLAX46Y46*%
G04 Gerber Fmt 4.6, Leading zero omitted, Abs format (unit mm)*
G04 Created by KiCad (PCBNEW (6.0.6)) date 2024-09-09 22:51:05*
%MOMM*%
%LPD*%
G01*
G04 APERTURE LIST*
%TA.AperFunction,ComponentPad*%
%ADD10O,2.000000X1.000000*%
%TD*%
%TA.AperFunction,ComponentPad*%
%ADD11C,1.540000*%
%TD*%
%TA.AperFunction,ViaPad*%
%ADD12C,0.457200*%
%TD*%
%TA.AperFunction,Conductor*%
%ADD13C,0.127000*%
%TD*%
G04 APERTURE END LIST*
D10*
%TO.P,J9,M1*%
%TO.N,N/C*%
X139339995Y-103937800D03*
%TO.P,J9,M2*%
X139339995Y-112577800D03*
%TO.P,J9,M3*%
X135159995Y-103937800D03*
%TO.P,J9,M4*%
X135159995Y-112577800D03*
%TD*%
D11*
%TO.P,J1,1,Pin_1*%
%TO.N,unconnected-(J1-Pad1)*%
X135950000Y-88950000D03*
%TO.P,J1,2,Pin_2*%
%TO.N,unconnected-(J1-Pad2)*%
X138490000Y-88950000D03*
%TO.P,J1,3,Pin_3*%
%TO.N,GND*%
X141030000Y-88950000D03*
%TO.P,J1,4,Pin_4*%
%TO.N,unconnected-(J1-Pad4)*%
X143570000Y-88950000D03*
%TO.P,J1,5,Pin_5*%
%TO.N,unconnected-(J1-Pad5)*%
X146110000Y-88950000D03*
%TO.P,J1,6,Pin_6*%
%TO.N,unconnected-(J1-Pad6)*%
X148650000Y-88950000D03*
%TO.P,J1,7,Pin_7*%
%TO.N,/NRST*%
X151190000Y-88950000D03*
%TO.P,J1,8,Pin_8*%
%TO.N,/USART1_CK*%
X153730000Y-88950000D03*
%TO.P,J1,9,Pin_9*%
%TO.N,/USART1_CTS*%
X156270000Y-88950000D03*
%TO.P,J1,10,Pin_10*%
%TO.N,/USART1_TX*%
X158810000Y-88950000D03*
%TO.P,J1,11,Pin_11*%
%TO.N,/USART1_RX*%
X161350000Y-88950000D03*
%TO.P,J1,12,Pin_12*%
%TO.N,/USART1_RTS*%
X163890000Y-88950000D03*
%TO.P,J1,13,Pin_13*%
%TO.N,unconnected-(J1-Pad13)*%
X166430000Y-88950000D03*
%TO.P,J1,14,Pin_14*%
%TO.N,unconnected-(J1-Pad14)*%
X168970000Y-88950000D03*
%TO.P,J1,15,Pin_15*%
%TO.N,unconnected-(J1-Pad15)*%
X171510000Y-88950000D03*
%TO.P,J1,16,Pin_16*%
%TO.N,unconnected-(J1-Pad16)*%
X174050000Y-88950000D03*
%TD*%
%TO.P,J4,1,Pin_1*%
%TO.N,VDD*%
X135950000Y-116890000D03*
%TO.P,J4,2,Pin_2*%
%TO.N,GND*%
X135950000Y-119430000D03*
%TO.P,J4,3,Pin_3*%
%TO.N,/SWDIO*%
X135950000Y-121970000D03*
%TO.P,J4,4,Pin_4*%
%TO.N,/SWCLK*%
X135950000Y-124510000D03*
%TD*%
%TO.P,J8,1,Pin_1*%
%TO.N,/DCMI_D0*%
X174040800Y-114300000D03*
%TO.P,J8,2,Pin_2*%
%TO.N,/DCMI_D1*%
X171500800Y-114300000D03*
%TO.P,J8,3,Pin_3*%
%TO.N,/DCMI_D2*%
X174040800Y-111760000D03*
%TO.P,J8,4,Pin_4*%
%TO.N,/DCMI_D3*%
X171500800Y-111760000D03*
%TO.P,J8,5,Pin_5*%
%TO.N,/DCMI_D4*%
X174040800Y-109220000D03*
%TO.P,J8,6,Pin_6*%
%TO.N,/DCMI_D5*%
X171500800Y-109220000D03*
%TO.P,J8,7,Pin_7*%
%TO.N,/DCMI_D6*%
X174040800Y-106680000D03*
%TO.P,J8,8,Pin_8*%
%TO.N,/DCMI_D7*%
X171500800Y-106680000D03*
%TO.P,J8,9,Pin_9*%
%TO.N,unconnected-(J8-Pad9)*%
X174040800Y-104140000D03*
%TO.P,J8,10,Pin_10*%
%TO.N,/DCMI_PIXCLK*%
X171500800Y-104140000D03*
%TO.P,J8,11,Pin_11*%
%TO.N,/DCMI_HSYNC*%
X174040800Y-101600000D03*
%TO.P,J8,12,Pin_12*%
%TO.N,/DCMI_VSYNC*%
X171500800Y-101600000D03*
%TD*%
%TO.P,J3,1,Pin_1*%
%TO.N,unconnected-(J3-Pad1)*%
X135950000Y-99110000D03*
%TO.P,J3,2,Pin_2*%
%TO.N,GND*%
X135950000Y-96570000D03*
%TO.P,J3,3,Pin_3*%
%TO.N,unconnected-(J3-Pad3)*%
X135950000Y-94030000D03*
%TO.P,J3,4,Pin_4*%
%TO.N,unconnected-(J3-Pad4)*%
X135950000Y-91490000D03*
%TD*%
%TO.P,J5,1,Pin_1*%
%TO.N,unconnected-(J5-Pad1)*%
X171510000Y-99110000D03*
%TO.P,J5,2,Pin_2*%
%TO.N,unconnected-(J5-Pad2)*%
X174050000Y-99110000D03*
%TO.P,J5,3,Pin_3*%
%TO.N,unconnected-(J5-Pad3)*%
X174050000Y-96570000D03*
%TO.P,J5,4,Pin_4*%
%TO.N,unconnected-(J5-Pad4)*%
X174050000Y-94030000D03*
%TO.P,J5,5,Pin_5*%
%TO.N,unconnected-(J5-Pad5)*%
X174050000Y-91490000D03*
%TD*%
%TO.P,J2,1,Pin_1*%
%TO.N,unconnected-(J2-Pad1)*%
X135950000Y-127050000D03*
%TO.P,J2,2,Pin_2*%
%TO.N,unconnected-(J2-Pad2)*%
X138490000Y-127050000D03*
%TO.P,J2,3,Pin_3*%
%TO.N,unconnected-(J2-Pad3)*%
X141030000Y-127050000D03*
%TO.P,J2,4,Pin_4*%
%TO.N,unconnected-(J2-Pad4)*%
X143570000Y-127050000D03*
%TO.P,J2,5,Pin_5*%
%TO.N,unconnected-(J2-Pad5)*%
X146110000Y-127050000D03*
%TO.P,J2,6,Pin_6*%
%TO.N,unconnected-(J2-Pad6)*%
X148650000Y-127050000D03*
%TO.P,J2,7,Pin_7*%
%TO.N,unconnected-(J2-Pad7)*%
X151190000Y-127050000D03*
%TO.P,J2,8,Pin_8*%
%TO.N,/BOOT0*%
X153730000Y-127050000D03*
%TO.P,J2,9,Pin_9*%
%TO.N,/LPUART_CTS*%
X156270000Y-127050000D03*
%TO.P,J2,10,Pin_10*%
%TO.N,/LPUART_TX*%
X158810000Y-127050000D03*
%TO.P,J2,11,Pin_11*%
%TO.N,/LPUART_RX*%
X161350000Y-127050000D03*
%TO.P,J2,12,Pin_12*%
%TO.N,/LPUART_RTS*%
X163890000Y-127050000D03*
%TO.P,J2,13,Pin_13*%
%TO.N,unconnected-(J2-Pad13)*%
X166430000Y-127050000D03*
%TO.P,J2,14,Pin_14*%
%TO.N,unconnected-(J2-Pad14)*%
X168970000Y-127050000D03*
%TO.P,J2,15,Pin_15*%
%TO.N,unconnected-(J2-Pad15)*%
X171510000Y-127050000D03*
%TO.P,J2,16,Pin_16*%
%TO.N,unconnected-(J2-Pad16)*%
X174050000Y-127050000D03*
%TD*%
%TO.P,J6,1,Pin_1*%
%TO.N,unconnected-(J6-Pad1)*%
X171500000Y-116890000D03*
%TO.P,J6,2,Pin_2*%
%TO.N,unconnected-(J6-Pad2)*%
X174040000Y-116890000D03*
%TO.P,J6,3,Pin_3*%
%TO.N,GND*%
X174040000Y-119430000D03*
%TO.P,J6,4,Pin_4*%
%TO.N,unconnected-(J6-Pad4)*%
X174040000Y-121970000D03*
%TO.P,J6,5,Pin_5*%
%TO.N,unconnected-(J6-Pad5)*%
X174040000Y-124510000D03*
%TD*%
D12*
%TO.N,GND*%
X142443200Y-122478800D03*
X160324800Y-106019600D03*
X168706800Y-108051600D03*
X140208000Y-98856800D03*
X138684000Y-99009200D03*
X168656000Y-113538000D03*
X143814800Y-93167200D03*
X156768800Y-99923600D03*
X168706800Y-116078000D03*
X149402800Y-97536000D03*
X168706800Y-110337600D03*
X164541200Y-108051600D03*
X156362400Y-120243600D03*
X152298400Y-97586800D03*
X169062400Y-121666000D03*
X166319200Y-104089200D03*
X149910800Y-101142800D03*
X150266400Y-122478800D03*
X141020800Y-105054400D03*
X141528800Y-93167200D03*
X146100800Y-111455200D03*
X166319200Y-102158800D03*
X159258000Y-117348000D03*
X160629600Y-110388400D03*
X143154400Y-115773200D03*
X162560000Y-103124000D03*
X163423600Y-105867200D03*
X162560000Y-101244400D03*
X140970000Y-111506000D03*
X156413200Y-101142800D03*
%TO.N,/VDD_FILT*%
X148183600Y-100177600D03*
X165404800Y-95300800D03*
X155752800Y-105867200D03*
X141732000Y-116890800D03*
X146100800Y-112522000D03*
X141528800Y-119481600D03*
X152146000Y-101092000D03*
X157480000Y-113944400D03*
X164033200Y-105054400D03*
X145135600Y-97942400D03*
%TO.N,/NRST*%
X157480000Y-108966000D03*
X153924000Y-92964000D03*
%TO.N,/VBUS*%
X138684000Y-110032800D03*
X141020800Y-105867200D03*
%TO.N,/DCMI_D7*%
X157073600Y-111252000D03*
%TO.N,/DCMI_D6*%
X155448000Y-111709200D03*
%TO.N,/DCMI_VSYNC*%
X155244800Y-110236000D03*
%TO.N,/DCMI_D5*%
X153924000Y-111760000D03*
%TO.N,/DCMI_D4*%
X150926800Y-112572800D03*
%TO.N,/USART1_RX*%
X148945600Y-109474000D03*
X162560000Y-90576400D03*
%TO.N,/USART1_TX*%
X148945600Y-108966000D03*
X158242000Y-90576400D03*
%TO.N,/USART1_CK*%
X148945600Y-108458000D03*
X153720800Y-90627200D03*
%TO.N,/DCMI_D3*%
X153873200Y-107899200D03*
%TO.N,/DCMI_D2*%
X153111200Y-107442000D03*
%TO.N,/DCMI_D1*%
X152400000Y-106934000D03*
%TO.N,/DCMI_D0*%
X151536400Y-106476800D03*
%TO.N,/LPUART_CTS*%
X144983200Y-104952800D03*
%TO.N,/LPUART_RTS*%
X145542000Y-104444800D03*
%TO.N,/LPUART_TX*%
X145719800Y-107975400D03*
%TO.N,/LPUART_RX*%
X145643600Y-106680000D03*
%TO.N,/QUADSPI_BK2_IO3*%
X153416000Y-104089200D03*
X165404800Y-96621600D03*
%TO.N,/DCMI_PIXCLK*%
X156362400Y-109931200D03*
%TO.N,/DCMI_HSYNC*%
X157073600Y-110490000D03*
%TO.N,/QUADSPI_CLK*%
X156921200Y-105105200D03*
X165404800Y-97840800D03*
%TO.N,/QUADSPI_BK2_IO2*%
X156260800Y-106984800D03*
X155295600Y-97840800D03*
%TO.N,/QUADSPI_BK2_IO1*%
X155168600Y-107416600D03*
X155295600Y-96570800D03*
%TO.N,/QUADSPI_BK2_IO0*%
X165404800Y-99110800D03*
X157175200Y-107950000D03*
%TO.N,Net-(J9-PadA5)*%
X141528800Y-107035600D03*
X139903200Y-101701600D03*
%TD*%
D13*
%TO.N,/NRST*%
X157480000Y-108966000D02*
X156066754Y-108966000D01*
X151282400Y-104181646D02*
X151282400Y-95605600D01*
X156066754Y-108966000D02*
X151282400Y-104181646D01*
X151282400Y-95605600D02*
X153924000Y-92964000D01*
%TO.N,/VBUS*%
X141020800Y-107696000D02*
X141020800Y-105867200D01*
X138684000Y-110032800D02*
X141020800Y-107696000D01*
%TO.N,/DCMI_D7*%
X162255200Y-111252000D02*
X166827200Y-106680000D01*
X157073600Y-111252000D02*
X162255200Y-111252000D01*
X166827200Y-106680000D02*
X171500800Y-106680000D01*
%TO.N,/DCMI_D6*%
X174040800Y-106680000D02*
X173080300Y-107640500D01*
X169468800Y-110286800D02*
X169408846Y-110286800D01*
X169408846Y-110286800D02*
X168338436Y-111357210D01*
X155861620Y-112122820D02*
X155448000Y-111709200D01*
X173080300Y-107640500D02*
X173080300Y-109113700D01*
X162102800Y-112122820D02*
X157625180Y-112122820D01*
X168338436Y-111357210D02*
X162868410Y-111357210D01*
X157625180Y-112122820D02*
X155861620Y-112122820D01*
X172008800Y-110185200D02*
X171907200Y-110286800D01*
X162868410Y-111357210D02*
X162102800Y-112122820D01*
X173080300Y-109113700D02*
X172008800Y-110185200D01*
X171907200Y-110286800D02*
X169468800Y-110286800D01*
%TO.N,/DCMI_VSYNC*%
X160515546Y-109426500D02*
X165252400Y-104689646D01*
X167589200Y-101600000D02*
X171500800Y-101600000D01*
X155244800Y-110236000D02*
X156054300Y-109426500D01*
X156054300Y-109426500D02*
X160515546Y-109426500D01*
X165252400Y-103936800D02*
X167589200Y-101600000D01*
X165252400Y-104689646D02*
X165252400Y-103936800D01*
%TO.N,/DCMI_D5*%
X162106410Y-111760000D02*
X156667200Y-111760000D01*
X164646410Y-109220000D02*
X162106410Y-111760000D01*
X154787600Y-110896400D02*
X153924000Y-111760000D01*
X155803600Y-110896400D02*
X154787600Y-110896400D01*
X171500800Y-109220000D02*
X164646410Y-109220000D01*
X156667200Y-111760000D02*
X155803600Y-110896400D01*
%TO.N,/DCMI_D4*%
X162973620Y-111611210D02*
X162387615Y-112197215D01*
X172720000Y-110540800D02*
X169519600Y-110540800D01*
X168300400Y-111611210D02*
X162973620Y-111611210D01*
X162387615Y-112197215D02*
X162012030Y-112572800D01*
X168449190Y-111611210D02*
X168300400Y-111611210D01*
X169519600Y-110540800D02*
X168449190Y-111611210D01*
X162012030Y-112572800D02*
X150926800Y-112572800D01*
X174040800Y-109220000D02*
X172720000Y-110540800D01*
%TO.N,/USART1_RX*%
X162560000Y-90576400D02*
X162610800Y-90525600D01*
X160782000Y-91236800D02*
X161899600Y-91236800D01*
X157784800Y-91236800D02*
X160782000Y-91236800D01*
X154689610Y-91236800D02*
X157784800Y-91236800D01*
X150977600Y-94996000D02*
X150977600Y-94948810D01*
X148945600Y-109474000D02*
X149088846Y-109474000D01*
X149088846Y-109474000D02*
X150977600Y-107585246D01*
X161899600Y-91236800D02*
X162560000Y-90576400D01*
X150977600Y-94948810D02*
X154689610Y-91236800D01*
X150977600Y-107585246D02*
X150977600Y-94996000D01*
%TO.N,/USART1_TX*%
X150723600Y-94843600D02*
X154584400Y-90982800D01*
X150723600Y-107331246D02*
X150723600Y-106629200D01*
X149136346Y-108918500D02*
X150723600Y-107331246D01*
X148802354Y-108966000D02*
X148754854Y-108918500D01*
X157835600Y-90982800D02*
X158242000Y-90576400D01*
X154584400Y-90982800D02*
X157835600Y-90982800D01*
X148754854Y-108918500D02*
X149136346Y-108918500D01*
X150723600Y-106629200D02*
X150723600Y-94843600D01*
X150723600Y-106629200D02*
X150723600Y-106476800D01*
X148945600Y-108966000D02*
X148802354Y-108966000D01*
%TO.N,/USART1_CK*%
X150469600Y-106934000D02*
X150469600Y-93878400D01*
X148945600Y-108458000D02*
X150469600Y-106934000D01*
X150469600Y-93878400D02*
X153720800Y-90627200D01*
%TO.N,/DCMI_D3*%
X149348700Y-113483900D02*
X148996400Y-113131600D01*
X168706800Y-111760000D02*
X167944800Y-112522000D01*
X148996400Y-112776000D02*
X153873200Y-107899200D01*
X167944800Y-112522000D02*
X166982900Y-113483900D01*
X171500800Y-111760000D02*
X168706800Y-111760000D01*
X166982900Y-113483900D02*
X149348700Y-113483900D01*
X148996400Y-113131600D02*
X148996400Y-112776000D01*
%TO.N,/DCMI_D2*%
X148437600Y-112068410D02*
X151792205Y-108713805D01*
X150366195Y-115060195D02*
X148437600Y-113131600D01*
X172679548Y-113121252D02*
X170239343Y-113121252D01*
X174040800Y-111760000D02*
X172679548Y-113121252D01*
X170239343Y-113121252D02*
X168300400Y-115060195D01*
X148437600Y-113131600D02*
X148437600Y-112068410D01*
X168300400Y-115060195D02*
X150366195Y-115060195D01*
X153064010Y-107442000D02*
X153111200Y-107442000D01*
X151792205Y-108713805D02*
X153064010Y-107442000D01*
%TO.N,/DCMI_D1*%
X147726400Y-112420400D02*
X152095200Y-108051600D01*
X152400000Y-107746800D02*
X152400000Y-106934000D01*
X147726400Y-112924790D02*
X147726400Y-112776000D01*
X147726400Y-112776000D02*
X147726400Y-112420400D01*
X150115805Y-115314195D02*
X147726400Y-112924790D01*
X152095200Y-108051600D02*
X152400000Y-107746800D01*
X170486605Y-115314195D02*
X150115805Y-115314195D01*
X171500800Y-114300000D02*
X170486605Y-115314195D01*
%TO.N,/DCMI_D0*%
X151536400Y-107848400D02*
X151536400Y-106476800D01*
X147472400Y-111912400D02*
X151536400Y-107848400D01*
X172723300Y-115617500D02*
X150059900Y-115617500D01*
X174040800Y-114300000D02*
X172723300Y-115617500D01*
X150059900Y-115617500D02*
X147472400Y-113030000D01*
X147472400Y-113030000D02*
X147472400Y-111912400D01*
%TO.N,/LPUART_CTS*%
X144983200Y-104952800D02*
X144983200Y-115763200D01*
X144983200Y-115763200D02*
X156270000Y-127050000D01*
%TO.N,/LPUART_RTS*%
X146561300Y-105464100D02*
X145542000Y-104444800D01*
X146561300Y-112525300D02*
X146561300Y-105464100D01*
X162929500Y-126089500D02*
X160125500Y-126089500D01*
X163890000Y-127050000D02*
X162929500Y-126089500D01*
X160125500Y-126089500D02*
X146561300Y-112525300D01*
%TO.N,/LPUART_TX*%
X145719800Y-107975400D02*
X145745200Y-107950000D01*
X145288000Y-108407200D02*
X145719800Y-107975400D01*
X145288000Y-113528000D02*
X145288000Y-113436400D01*
X158810000Y-127050000D02*
X145288000Y-113528000D01*
X145288000Y-113528000D02*
X145288000Y-108407200D01*
%TO.N,/LPUART_RX*%
X161350000Y-127050000D02*
X160168353Y-127050000D01*
X146205700Y-106680000D02*
X145643600Y-106680000D01*
X146307300Y-108911900D02*
X146307300Y-106781600D01*
X145592800Y-109626400D02*
X145948400Y-109270800D01*
X146605553Y-113487200D02*
X145846800Y-113487200D01*
X146307300Y-106781600D02*
X146205700Y-106680000D01*
X145948400Y-109270800D02*
X146307300Y-108911900D01*
X145592800Y-113233200D02*
X145592800Y-109626400D01*
X160168353Y-127050000D02*
X146605553Y-113487200D01*
X145846800Y-113487200D02*
X145592800Y-113233200D01*
%TO.N,/QUADSPI_BK2_IO3*%
X165404800Y-96621600D02*
X157937200Y-104089200D01*
X157937200Y-104089200D02*
X153416000Y-104089200D01*
%TO.N,/DCMI_PIXCLK*%
X160435554Y-109931200D02*
X165817054Y-104549700D01*
X156362400Y-109931200D02*
X160435554Y-109931200D01*
X171091100Y-104549700D02*
X171500800Y-104140000D01*
X165817054Y-104549700D02*
X171091100Y-104549700D01*
%TO.N,/DCMI_HSYNC*%
X160934400Y-110848900D02*
X166979600Y-104803700D01*
X171856400Y-105511600D02*
X172770800Y-104597200D01*
X171246800Y-105511600D02*
X171856400Y-105511600D01*
X172770800Y-102870000D02*
X174040800Y-101600000D01*
X166979600Y-104803700D02*
X170538900Y-104803700D01*
X157432500Y-110848900D02*
X160934400Y-110848900D01*
X172770800Y-104597200D02*
X172770800Y-102870000D01*
X170538900Y-104803700D02*
X171246800Y-105511600D01*
X157073600Y-110490000D02*
X157432500Y-110848900D01*
%TO.N,/QUADSPI_CLK*%
X165312354Y-97840800D02*
X158657554Y-104495600D01*
X158657554Y-104495600D02*
X158047954Y-105105200D01*
X165404800Y-97840800D02*
X165312354Y-97840800D01*
X158047954Y-105105200D02*
X156921200Y-105105200D01*
%TO.N,/QUADSPI_BK2_IO2*%
X155295600Y-97840800D02*
X152955500Y-100180900D01*
X155651200Y-106984800D02*
X156260800Y-106984800D01*
X152955500Y-104289100D02*
X155651200Y-106984800D01*
X152955500Y-100180900D02*
X152955500Y-104289100D01*
%TO.N,/QUADSPI_BK2_IO1*%
X152701500Y-104394310D02*
X152701500Y-104949500D01*
X152701500Y-99164900D02*
X152701500Y-104394310D01*
X155295600Y-96570800D02*
X152701500Y-99164900D01*
X155168600Y-107416600D02*
X155194000Y-107442000D01*
X152701500Y-104949500D02*
X155168600Y-107416600D01*
%TO.N,/QUADSPI_BK2_IO0*%
X165404800Y-99110800D02*
X157175200Y-107340400D01*
X157175200Y-107340400D02*
X157175200Y-107950000D01*
%TO.N,Net-(J9-PadA5)*%
X139903200Y-101701600D02*
X140563600Y-101701600D01*
X141528800Y-102666800D02*
X141528800Y-107035600D01*
X140563600Y-101701600D02*
X141528800Y-102666800D01*
%TD*%
M02*
