%TF.GenerationSoftware,KiCad,Pcbnew,(6.0.6)*%
%TF.CreationDate,2024-09-09T22:51:05-04:00*%
%TF.ProjectId,ta-expt-v2,74612d65-7870-4742-9d76-322e6b696361,rev?*%
%TF.SameCoordinates,Original*%
%TF.FileFunction,Copper,L1,Top*%
%TF.FilePolarity,Positive*%
%FSLAX46Y46*%
G04 Gerber Fmt 4.6, Leading zero omitted, Abs format (unit mm)*
G04 Created by KiCad (PCBNEW (6.0.6)) date 2024-09-09 22:51:05*
%MOMM*%
%LPD*%
G01*
G04 APERTURE LIST*
G04 Aperture macros list*
%AMRoundRect*
0 Rectangle with rounded corners*
0 $1 Rounding radius*
0 $2 $3 $4 $5 $6 $7 $8 $9 X,Y pos of 4 corners*
0 Add a 4 corners polygon primitive as box body*
4,1,4,$2,$3,$4,$5,$6,$7,$8,$9,$2,$3,0*
0 Add four circle primitives for the rounded corners*
1,1,$1+$1,$2,$3*
1,1,$1+$1,$4,$5*
1,1,$1+$1,$6,$7*
1,1,$1+$1,$8,$9*
0 Add four rect primitives between the rounded corners*
20,1,$1+$1,$2,$3,$4,$5,0*
20,1,$1+$1,$4,$5,$6,$7,0*
20,1,$1+$1,$6,$7,$8,$9,0*
20,1,$1+$1,$8,$9,$2,$3,0*%
G04 Aperture macros list end*
%ADD10C,0.146304*%
%TA.AperFunction,NonConductor*%
%ADD11C,0.146304*%
%TD*%
%ADD12C,0.040640*%
%TA.AperFunction,NonConductor*%
%ADD13C,0.040640*%
%TD*%
%TA.AperFunction,EtchedComponent*%
%ADD14C,0.050000*%
%TD*%
%TA.AperFunction,EtchedComponent*%
%ADD15C,0.101600*%
%TD*%
%TA.AperFunction,SMDPad,CuDef*%
%ADD16R,0.700000X1.000000*%
%TD*%
%TA.AperFunction,SMDPad,CuDef*%
%ADD17R,1.150000X0.575000*%
%TD*%
%TA.AperFunction,SMDPad,CuDef*%
%ADD18R,1.150000X0.275000*%
%TD*%
%TA.AperFunction,ComponentPad*%
%ADD19O,2.000000X1.000000*%
%TD*%
%TA.AperFunction,SMDPad,CuDef*%
%ADD20R,1.000000X0.700000*%
%TD*%
%TA.AperFunction,SMDPad,CuDef*%
%ADD21R,0.800000X1.000000*%
%TD*%
%TA.AperFunction,SMDPad,CuDef*%
%ADD22R,0.700000X0.700000*%
%TD*%
%TA.AperFunction,SMDPad,CuDef*%
%ADD23R,1.700000X0.900000*%
%TD*%
%TA.AperFunction,SMDPad,CuDef*%
%ADD24R,1.000000X1.200000*%
%TD*%
%TA.AperFunction,SMDPad,CuDef*%
%ADD25RoundRect,0.150000X-0.512500X-0.150000X0.512500X-0.150000X0.512500X0.150000X-0.512500X0.150000X0*%
%TD*%
%TA.AperFunction,SMDPad,CuDef*%
%ADD26R,1.460000X0.250000*%
%TD*%
%TA.AperFunction,SMDPad,CuDef*%
%ADD27R,0.250000X1.460000*%
%TD*%
%TA.AperFunction,ComponentPad*%
%ADD28C,1.540000*%
%TD*%
%TA.AperFunction,SMDPad,CuDef*%
%ADD29R,1.750000X0.600000*%
%TD*%
%TA.AperFunction,SMDPad,CuDef*%
%ADD30R,0.700000X0.940000*%
%TD*%
%TA.AperFunction,SMDPad,CuDef*%
%ADD31R,2.200000X6.400000*%
%TD*%
%TA.AperFunction,ViaPad*%
%ADD32C,0.457200*%
%TD*%
%TA.AperFunction,Conductor*%
%ADD33C,0.127000*%
%TD*%
G04 APERTURE END LIST*
D10*
%TO.C,J9*%
D11*
X133254209Y-104809566D02*
X133254209Y-105285634D01*
X133222471Y-105380848D01*
X133158995Y-105444324D01*
X133063782Y-105476062D01*
X133000306Y-105476062D01*
X133603326Y-105476062D02*
X133730278Y-105476062D01*
X133793753Y-105444324D01*
X133825491Y-105412586D01*
X133888967Y-105317372D01*
X133920705Y-105190420D01*
X133920705Y-104936517D01*
X133888967Y-104873041D01*
X133857229Y-104841304D01*
X133793753Y-104809566D01*
X133666802Y-104809566D01*
X133603326Y-104841304D01*
X133571588Y-104873041D01*
X133539850Y-104936517D01*
X133539850Y-105095207D01*
X133571588Y-105158683D01*
X133603326Y-105190420D01*
X133666802Y-105222158D01*
X133793753Y-105222158D01*
X133857229Y-105190420D01*
X133888967Y-105158683D01*
X133920705Y-105095207D01*
D12*
D13*
X132923496Y-106374622D02*
X132923496Y-106670714D01*
X132940913Y-106705548D01*
X132958331Y-106722965D01*
X132993165Y-106740382D01*
X133062833Y-106740382D01*
X133097668Y-106722965D01*
X133115085Y-106705548D01*
X133132502Y-106670714D01*
X133132502Y-106374622D01*
X133289256Y-106722965D02*
X133341508Y-106740382D01*
X133428593Y-106740382D01*
X133463428Y-106722965D01*
X133480845Y-106705548D01*
X133498262Y-106670714D01*
X133498262Y-106635880D01*
X133480845Y-106601045D01*
X133463428Y-106583628D01*
X133428593Y-106566211D01*
X133358925Y-106548794D01*
X133324091Y-106531377D01*
X133306673Y-106513960D01*
X133289256Y-106479125D01*
X133289256Y-106444291D01*
X133306673Y-106409457D01*
X133324091Y-106392040D01*
X133358925Y-106374622D01*
X133446011Y-106374622D01*
X133498262Y-106392040D01*
X133776936Y-106548794D02*
X133829188Y-106566211D01*
X133846605Y-106583628D01*
X133864022Y-106618462D01*
X133864022Y-106670714D01*
X133846605Y-106705548D01*
X133829188Y-106722965D01*
X133794353Y-106740382D01*
X133655016Y-106740382D01*
X133655016Y-106374622D01*
X133776936Y-106374622D01*
X133811771Y-106392040D01*
X133829188Y-106409457D01*
X133846605Y-106444291D01*
X133846605Y-106479125D01*
X133829188Y-106513960D01*
X133811771Y-106531377D01*
X133776936Y-106548794D01*
X133655016Y-106548794D01*
X133933691Y-106775217D02*
X134212365Y-106775217D01*
X134508456Y-106705548D02*
X134491039Y-106722965D01*
X134438788Y-106740382D01*
X134403953Y-106740382D01*
X134351702Y-106722965D01*
X134316868Y-106688131D01*
X134299451Y-106653297D01*
X134282033Y-106583628D01*
X134282033Y-106531377D01*
X134299451Y-106461708D01*
X134316868Y-106426874D01*
X134351702Y-106392040D01*
X134403953Y-106374622D01*
X134438788Y-106374622D01*
X134491039Y-106392040D01*
X134508456Y-106409457D01*
X134578125Y-106775217D02*
X134856799Y-106775217D01*
X135152891Y-106740382D02*
X135030971Y-106566211D01*
X134943885Y-106740382D02*
X134943885Y-106374622D01*
X135083222Y-106374622D01*
X135118056Y-106392040D01*
X135135473Y-106409457D01*
X135152891Y-106444291D01*
X135152891Y-106496542D01*
X135135473Y-106531377D01*
X135118056Y-106548794D01*
X135083222Y-106566211D01*
X134943885Y-106566211D01*
X135448982Y-106722965D02*
X135414148Y-106740382D01*
X135344479Y-106740382D01*
X135309645Y-106722965D01*
X135292228Y-106688131D01*
X135292228Y-106548794D01*
X135309645Y-106513960D01*
X135344479Y-106496542D01*
X135414148Y-106496542D01*
X135448982Y-106513960D01*
X135466399Y-106548794D01*
X135466399Y-106583628D01*
X135292228Y-106618462D01*
X135779908Y-106722965D02*
X135745073Y-106740382D01*
X135675405Y-106740382D01*
X135640571Y-106722965D01*
X135623153Y-106705548D01*
X135605736Y-106670714D01*
X135605736Y-106566211D01*
X135623153Y-106531377D01*
X135640571Y-106513960D01*
X135675405Y-106496542D01*
X135745073Y-106496542D01*
X135779908Y-106513960D01*
X136075999Y-106722965D02*
X136041165Y-106740382D01*
X135971496Y-106740382D01*
X135936662Y-106722965D01*
X135919245Y-106688131D01*
X135919245Y-106548794D01*
X135936662Y-106513960D01*
X135971496Y-106496542D01*
X136041165Y-106496542D01*
X136075999Y-106513960D01*
X136093416Y-106548794D01*
X136093416Y-106583628D01*
X135919245Y-106618462D01*
X136250171Y-106496542D02*
X136250171Y-106862302D01*
X136250171Y-106513960D02*
X136285005Y-106496542D01*
X136354673Y-106496542D01*
X136389508Y-106513960D01*
X136406925Y-106531377D01*
X136424342Y-106566211D01*
X136424342Y-106670714D01*
X136406925Y-106705548D01*
X136389508Y-106722965D01*
X136354673Y-106740382D01*
X136285005Y-106740382D01*
X136250171Y-106722965D01*
X136528845Y-106496542D02*
X136668182Y-106496542D01*
X136581096Y-106374622D02*
X136581096Y-106688131D01*
X136598513Y-106722965D01*
X136633348Y-106740382D01*
X136668182Y-106740382D01*
X136946856Y-106740382D02*
X136946856Y-106548794D01*
X136929439Y-106513960D01*
X136894605Y-106496542D01*
X136824936Y-106496542D01*
X136790102Y-106513960D01*
X136946856Y-106722965D02*
X136912022Y-106740382D01*
X136824936Y-106740382D01*
X136790102Y-106722965D01*
X136772685Y-106688131D01*
X136772685Y-106653297D01*
X136790102Y-106618462D01*
X136824936Y-106601045D01*
X136912022Y-106601045D01*
X136946856Y-106583628D01*
X137277782Y-106722965D02*
X137242948Y-106740382D01*
X137173279Y-106740382D01*
X137138445Y-106722965D01*
X137121028Y-106705548D01*
X137103611Y-106670714D01*
X137103611Y-106566211D01*
X137121028Y-106531377D01*
X137138445Y-106513960D01*
X137173279Y-106496542D01*
X137242948Y-106496542D01*
X137277782Y-106513960D01*
X137486788Y-106740382D02*
X137451953Y-106722965D01*
X137434536Y-106688131D01*
X137434536Y-106374622D01*
X137765462Y-106722965D02*
X137730628Y-106740382D01*
X137660959Y-106740382D01*
X137626125Y-106722965D01*
X137608708Y-106688131D01*
X137608708Y-106548794D01*
X137626125Y-106513960D01*
X137660959Y-106496542D01*
X137730628Y-106496542D01*
X137765462Y-106513960D01*
X137782879Y-106548794D01*
X137782879Y-106583628D01*
X137608708Y-106618462D01*
X137852548Y-106775217D02*
X138131222Y-106775217D01*
X138218308Y-106374622D02*
X138218308Y-106670714D01*
X138235725Y-106705548D01*
X138253142Y-106722965D01*
X138287976Y-106740382D01*
X138357645Y-106740382D01*
X138392479Y-106722965D01*
X138409896Y-106705548D01*
X138427313Y-106670714D01*
X138427313Y-106374622D01*
X138584068Y-106722965D02*
X138636319Y-106740382D01*
X138723405Y-106740382D01*
X138758239Y-106722965D01*
X138775656Y-106705548D01*
X138793073Y-106670714D01*
X138793073Y-106635880D01*
X138775656Y-106601045D01*
X138758239Y-106583628D01*
X138723405Y-106566211D01*
X138653736Y-106548794D01*
X138618902Y-106531377D01*
X138601485Y-106513960D01*
X138584068Y-106479125D01*
X138584068Y-106444291D01*
X138601485Y-106409457D01*
X138618902Y-106392040D01*
X138653736Y-106374622D01*
X138740822Y-106374622D01*
X138793073Y-106392040D01*
X139071748Y-106548794D02*
X139123999Y-106566211D01*
X139141416Y-106583628D01*
X139158833Y-106618462D01*
X139158833Y-106670714D01*
X139141416Y-106705548D01*
X139123999Y-106722965D01*
X139089165Y-106740382D01*
X138949828Y-106740382D01*
X138949828Y-106374622D01*
X139071748Y-106374622D01*
X139106582Y-106392040D01*
X139123999Y-106409457D01*
X139141416Y-106444291D01*
X139141416Y-106479125D01*
X139123999Y-106513960D01*
X139106582Y-106531377D01*
X139071748Y-106548794D01*
X138949828Y-106548794D01*
X139298171Y-106409457D02*
X139315588Y-106392040D01*
X139350422Y-106374622D01*
X139437508Y-106374622D01*
X139472342Y-106392040D01*
X139489759Y-106409457D01*
X139507176Y-106444291D01*
X139507176Y-106479125D01*
X139489759Y-106531377D01*
X139280753Y-106740382D01*
X139507176Y-106740382D01*
X139663931Y-106705548D02*
X139681348Y-106722965D01*
X139663931Y-106740382D01*
X139646513Y-106722965D01*
X139663931Y-106705548D01*
X139663931Y-106740382D01*
X139907771Y-106374622D02*
X139942605Y-106374622D01*
X139977439Y-106392040D01*
X139994856Y-106409457D01*
X140012273Y-106444291D01*
X140029691Y-106513960D01*
X140029691Y-106601045D01*
X140012273Y-106670714D01*
X139994856Y-106705548D01*
X139977439Y-106722965D01*
X139942605Y-106740382D01*
X139907771Y-106740382D01*
X139872936Y-106722965D01*
X139855519Y-106705548D01*
X139838102Y-106670714D01*
X139820685Y-106601045D01*
X139820685Y-106513960D01*
X139838102Y-106444291D01*
X139855519Y-106409457D01*
X139872936Y-106392040D01*
X139907771Y-106374622D01*
D14*
X132559995Y-103787800D02*
X139909995Y-103787800D01*
D15*
X136559995Y-103787800D02*
X137909995Y-103787800D01*
X132559995Y-112727800D02*
X132559995Y-103787800D01*
D14*
X139909995Y-112727800D02*
X132559995Y-112727800D01*
D15*
X137909995Y-112727800D02*
X136559995Y-112727800D01*
D14*
X139909995Y-103787800D02*
X139909995Y-104727800D01*
D15*
X133909995Y-112727800D02*
X132559995Y-112727800D01*
D14*
X132559995Y-112727800D02*
X132559995Y-103787800D01*
D15*
X132559995Y-103787800D02*
X133909995Y-103787800D01*
D14*
X139909995Y-111787800D02*
X139909995Y-112727800D01*
G36*
X135777575Y-112097810D02*
G01*
X135900095Y-112148559D01*
X136005305Y-112229290D01*
X136086036Y-112334500D01*
X136154095Y-112588500D01*
X136130475Y-112737632D01*
X136061927Y-112872165D01*
X135955160Y-112978932D01*
X135671495Y-113071100D01*
X134655495Y-113071100D01*
X134506363Y-113047480D01*
X134371830Y-112978932D01*
X134265063Y-112872165D01*
X134172895Y-112588500D01*
X134190205Y-112457020D01*
X134240954Y-112334500D01*
X134321685Y-112229290D01*
X134426895Y-112148559D01*
X134680895Y-112080500D01*
X135646095Y-112080500D01*
X135777575Y-112097810D01*
G37*
G36*
X139955875Y-103449110D02*
G01*
X140078395Y-103499859D01*
X140183605Y-103580590D01*
X140264336Y-103685800D01*
X140332395Y-103939800D01*
X140308775Y-104088932D01*
X140240227Y-104223465D01*
X140133460Y-104330232D01*
X139849795Y-104422400D01*
X138833795Y-104422400D01*
X138684663Y-104398780D01*
X138550130Y-104330232D01*
X138443363Y-104223465D01*
X138351195Y-103939800D01*
X138368505Y-103808320D01*
X138419254Y-103685800D01*
X138499985Y-103580590D01*
X138605195Y-103499859D01*
X138859195Y-103431800D01*
X139824395Y-103431800D01*
X139955875Y-103449110D01*
G37*
G36*
X135777575Y-103461810D02*
G01*
X135900095Y-103512559D01*
X136005305Y-103593290D01*
X136086036Y-103698500D01*
X136154095Y-103952500D01*
X136130475Y-104101632D01*
X136061927Y-104236165D01*
X135955160Y-104342932D01*
X135671495Y-104435100D01*
X134655495Y-104435100D01*
X134506363Y-104411480D01*
X134371830Y-104342932D01*
X134265063Y-104236165D01*
X134172895Y-103952500D01*
X134190205Y-103821020D01*
X134240954Y-103698500D01*
X134321685Y-103593290D01*
X134426895Y-103512559D01*
X134680895Y-103444500D01*
X135646095Y-103444500D01*
X135777575Y-103461810D01*
G37*
G36*
X139968575Y-112097810D02*
G01*
X140091095Y-112148559D01*
X140196305Y-112229290D01*
X140277036Y-112334500D01*
X140345095Y-112588500D01*
X140321475Y-112737632D01*
X140252927Y-112872165D01*
X140146160Y-112978932D01*
X139862495Y-113071100D01*
X138846495Y-113071100D01*
X138697363Y-113047480D01*
X138562830Y-112978932D01*
X138456063Y-112872165D01*
X138363895Y-112588500D01*
X138381205Y-112457020D01*
X138431954Y-112334500D01*
X138512685Y-112229290D01*
X138617895Y-112148559D01*
X138871895Y-112080500D01*
X139837095Y-112080500D01*
X139968575Y-112097810D01*
G37*
%TD*%
D16*
%TO.P,C14,1*%
%TO.N,/VDD_FILT*%
X160923200Y-93167200D03*
%TO.P,C14,2*%
%TO.N,GND*%
X159523200Y-93167200D03*
%TD*%
D17*
%TO.P,J9,A1,GND*%
%TO.N,GND*%
X139915006Y-105057804D03*
%TO.P,J9,A4,VBUS*%
%TO.N,/VBUS*%
X139915006Y-105857802D03*
D18*
%TO.P,J9,A5,CC1*%
%TO.N,Net-(J9-PadA5)*%
X139914995Y-107007800D03*
%TO.P,J9,A6,D+*%
%TO.N,/D+*%
X139914995Y-108007800D03*
%TO.P,J9,A7,D-*%
%TO.N,/D-*%
X139914995Y-108507800D03*
%TO.P,J9,A8,SBU1*%
%TO.N,unconnected-(J9-PadA8)*%
X139914995Y-109507800D03*
D17*
%TO.P,J9,B1,GND*%
%TO.N,GND*%
X139915006Y-111457791D03*
%TO.P,J9,B4,VBUS*%
%TO.N,/VBUS*%
X139915006Y-110657792D03*
D18*
%TO.P,J9,B5,CC2*%
%TO.N,Net-(J9-PadB5)*%
X139914995Y-110007800D03*
%TO.P,J9,B6,D+*%
%TO.N,/D+*%
X139914995Y-109007800D03*
%TO.P,J9,B7,D-*%
%TO.N,/D-*%
X139914995Y-107507800D03*
%TO.P,J9,B8,SBU2*%
%TO.N,unconnected-(J9-PadB8)*%
X139914995Y-106507800D03*
D19*
%TO.P,J9,M1*%
%TO.N,N/C*%
X139339995Y-103937800D03*
%TO.P,J9,M2*%
X139339995Y-112577800D03*
%TO.P,J9,M3*%
X135159995Y-103937800D03*
%TO.P,J9,M4*%
X135159995Y-112577800D03*
%TD*%
D20*
%TO.P,C17,1*%
%TO.N,/VDD_FILT*%
X143814800Y-95746800D03*
%TO.P,C17,2*%
%TO.N,GND*%
X143814800Y-94346800D03*
%TD*%
D21*
%TO.P,FB1,1,1*%
%TO.N,VDD*%
X139001600Y-116890800D03*
%TO.P,FB1,2,2*%
%TO.N,/VDD_FILT*%
X140601600Y-116890800D03*
%TD*%
D22*
%TO.P,LED1,1,K*%
%TO.N,GND*%
X144475200Y-122466800D03*
%TO.P,LED1,2,A*%
%TO.N,Net-(LED1-Pad2)*%
X144475200Y-120966800D03*
%TD*%
D16*
%TO.P,C11,1*%
%TO.N,Net-(C11-Pad1)*%
X166381200Y-110337600D03*
%TO.P,C11,2*%
%TO.N,GND*%
X167781200Y-110337600D03*
%TD*%
%TO.P,C5,1*%
%TO.N,/VDD_FILT*%
X161148800Y-102158800D03*
%TO.P,C5,2*%
%TO.N,GND*%
X162548800Y-102158800D03*
%TD*%
%TO.P,C6,1*%
%TO.N,/VDD_FILT*%
X161148800Y-104038400D03*
%TO.P,C6,2*%
%TO.N,GND*%
X162548800Y-104038400D03*
%TD*%
D23*
%TO.P,Y2,1,1*%
%TO.N,Net-(C13-Pad1)*%
X162509200Y-116083000D03*
%TO.P,Y2,2,2*%
%TO.N,Net-(C12-Pad1)*%
X162509200Y-113533000D03*
%TD*%
D16*
%TO.P,C9,1*%
%TO.N,/NRST*%
X161148800Y-105816400D03*
%TO.P,C9,2*%
%TO.N,GND*%
X162548800Y-105816400D03*
%TD*%
D24*
%TO.P,Y1,1,CRYSTAL_1*%
%TO.N,Net-(C11-Pad1)*%
X163560800Y-110370000D03*
%TO.P,Y1,2,GND_1*%
%TO.N,GND*%
X163560800Y-108070000D03*
%TO.P,Y1,3,CRYSTAL_2*%
%TO.N,Net-(C10-Pad1)*%
X161660800Y-108070000D03*
%TO.P,Y1,4,GND_2*%
%TO.N,GND*%
X161660800Y-110370000D03*
%TD*%
D16*
%TO.P,C13,1*%
%TO.N,Net-(C13-Pad1)*%
X166432000Y-116078000D03*
%TO.P,C13,2*%
%TO.N,GND*%
X167832000Y-116078000D03*
%TD*%
D25*
%TO.P,U1,1,IN*%
%TO.N,/VBUS*%
X141508900Y-97906800D03*
%TO.P,U1,2,GND*%
%TO.N,GND*%
X141508900Y-98856800D03*
%TO.P,U1,3,EN*%
%TO.N,/VBUS*%
X141508900Y-99806800D03*
%TO.P,U1,4,NC*%
%TO.N,unconnected-(U1-Pad4)*%
X143783900Y-99806800D03*
%TO.P,U1,5,OUT*%
%TO.N,/VDD_FILT*%
X143783900Y-97906800D03*
%TD*%
D20*
%TO.P,R7,1*%
%TO.N,GND*%
X143154400Y-114744400D03*
%TO.P,R7,2*%
%TO.N,Net-(J9-PadB5)*%
X143154400Y-113144400D03*
%TD*%
D26*
%TO.P,IC1,1,VBAT*%
%TO.N,/VBAT*%
X158900000Y-111954000D03*
%TO.P,IC1,2,PC13*%
%TO.N,unconnected-(IC1-Pad2)*%
X158900000Y-111454000D03*
%TO.P,IC1,3,PC14-OSC32_IN*%
%TO.N,Net-(C13-Pad1)*%
X158900000Y-110954000D03*
%TO.P,IC1,4,PC15-OSC32_OUT*%
%TO.N,Net-(C12-Pad1)*%
X158900000Y-110454000D03*
%TO.P,IC1,5,PH0-OSC_IN*%
%TO.N,Net-(C11-Pad1)*%
X158900000Y-109954000D03*
%TO.P,IC1,6,PH1-OSC_OUT*%
%TO.N,Net-(C10-Pad1)*%
X158900000Y-109454000D03*
%TO.P,IC1,7,NRST*%
%TO.N,/NRST*%
X158900000Y-108954000D03*
%TO.P,IC1,8,PC0*%
%TO.N,unconnected-(IC1-Pad8)*%
X158900000Y-108454000D03*
%TO.P,IC1,9,PC1*%
%TO.N,/QUADSPI_BK2_IO0*%
X158900000Y-107954000D03*
%TO.P,IC1,10,PC2*%
%TO.N,/QUADSPI_BK2_IO1*%
X158900000Y-107454000D03*
%TO.P,IC1,11,PC3*%
%TO.N,/QUADSPI_BK2_IO2*%
X158900000Y-106954000D03*
%TO.P,IC1,12,VSSA/VREF-*%
%TO.N,GND*%
X158900000Y-106454000D03*
%TO.P,IC1,13,VDDA/VREF+*%
%TO.N,/VDD_FILT*%
X158900000Y-105954000D03*
%TO.P,IC1,14,PA0*%
%TO.N,unconnected-(IC1-Pad14)*%
X158900000Y-105454000D03*
%TO.P,IC1,15,PA1*%
%TO.N,unconnected-(IC1-Pad15)*%
X158900000Y-104954000D03*
%TO.P,IC1,16,PA2*%
%TO.N,/QUADSPI_BK1_NCS*%
X158900000Y-104454000D03*
D27*
%TO.P,IC1,17,PA3*%
%TO.N,/QUADSPI_CLK*%
X156912000Y-102466000D03*
%TO.P,IC1,18,VSS_1*%
%TO.N,GND*%
X156412000Y-102466000D03*
%TO.P,IC1,19,VDD_1*%
%TO.N,/VDD_FILT*%
X155912000Y-102466000D03*
%TO.P,IC1,20,PA4*%
%TO.N,/DCMI_HSYNC*%
X155412000Y-102466000D03*
%TO.P,IC1,21,PA5*%
%TO.N,unconnected-(IC1-Pad21)*%
X154912000Y-102466000D03*
%TO.P,IC1,22,PA6*%
%TO.N,/DCMI_PIXCLK*%
X154412000Y-102466000D03*
%TO.P,IC1,23,PA7*%
%TO.N,unconnected-(IC1-Pad23)*%
X153912000Y-102466000D03*
%TO.P,IC1,24,PC4*%
%TO.N,/QUADSPI_BK2_IO3*%
X153412000Y-102466000D03*
%TO.P,IC1,25,PC5*%
%TO.N,unconnected-(IC1-Pad25)*%
X152912000Y-102466000D03*
%TO.P,IC1,26,PB0*%
%TO.N,unconnected-(IC1-Pad26)*%
X152412000Y-102466000D03*
%TO.P,IC1,27,PB1*%
%TO.N,unconnected-(IC1-Pad27)*%
X151912000Y-102466000D03*
%TO.P,IC1,28,PB2*%
%TO.N,unconnected-(IC1-Pad28)*%
X151412000Y-102466000D03*
%TO.P,IC1,29,PB10*%
%TO.N,/LPUART_RX*%
X150912000Y-102466000D03*
%TO.P,IC1,30,PB11*%
%TO.N,/LPUART_TX*%
X150412000Y-102466000D03*
%TO.P,IC1,31,VSS_2*%
%TO.N,GND*%
X149912000Y-102466000D03*
%TO.P,IC1,32,VDD_2*%
%TO.N,/VDD_FILT*%
X149412000Y-102466000D03*
D26*
%TO.P,IC1,33,PB12*%
%TO.N,/LPUART_RTS*%
X147424000Y-104454000D03*
%TO.P,IC1,34,PB13*%
%TO.N,/LPUART_CTS*%
X147424000Y-104954000D03*
%TO.P,IC1,35,PB14*%
%TO.N,unconnected-(IC1-Pad35)*%
X147424000Y-105454000D03*
%TO.P,IC1,36,PB15*%
%TO.N,unconnected-(IC1-Pad36)*%
X147424000Y-105954000D03*
%TO.P,IC1,37,PC6*%
%TO.N,/DCMI_D0*%
X147424000Y-106454000D03*
%TO.P,IC1,38,PC7*%
%TO.N,/DCMI_D1*%
X147424000Y-106954000D03*
%TO.P,IC1,39,PC8*%
%TO.N,/DCMI_D2*%
X147424000Y-107454000D03*
%TO.P,IC1,40,PC9*%
%TO.N,/DCMI_D3*%
X147424000Y-107954000D03*
%TO.P,IC1,41,PA8*%
%TO.N,/USART1_CK*%
X147424000Y-108454000D03*
%TO.P,IC1,42,PA9*%
%TO.N,/USART1_TX*%
X147424000Y-108954000D03*
%TO.P,IC1,43,PA10*%
%TO.N,/USART1_RX*%
X147424000Y-109454000D03*
%TO.P,IC1,44,PA11*%
%TO.N,/D-*%
X147424000Y-109954000D03*
%TO.P,IC1,45,PA12*%
%TO.N,/D+*%
X147424000Y-110454000D03*
%TO.P,IC1,46,PA13*%
%TO.N,/SWDIO*%
X147424000Y-110954000D03*
%TO.P,IC1,47,VSS_3*%
%TO.N,GND*%
X147424000Y-111454000D03*
%TO.P,IC1,48,VDDUSB*%
%TO.N,/VDD_FILT*%
X147424000Y-111954000D03*
D27*
%TO.P,IC1,49,PA14*%
%TO.N,/SWCLK*%
X149412000Y-113942000D03*
%TO.P,IC1,50,PA15*%
%TO.N,unconnected-(IC1-Pad50)*%
X149912000Y-113942000D03*
%TO.P,IC1,51,PC10*%
%TO.N,/LED1*%
X150412000Y-113942000D03*
%TO.P,IC1,52,PC11*%
%TO.N,/DCMI_D4*%
X150912000Y-113942000D03*
%TO.P,IC1,53,PC12*%
%TO.N,/LED2*%
X151412000Y-113942000D03*
%TO.P,IC1,54,PD2*%
%TO.N,unconnected-(IC1-Pad54)*%
X151912000Y-113942000D03*
%TO.P,IC1,55,PB3*%
%TO.N,unconnected-(IC1-Pad55)*%
X152412000Y-113942000D03*
%TO.P,IC1,56,PB4*%
%TO.N,unconnected-(IC1-Pad56)*%
X152912000Y-113942000D03*
%TO.P,IC1,57,PB5*%
%TO.N,unconnected-(IC1-Pad57)*%
X153412000Y-113942000D03*
%TO.P,IC1,58,PB6*%
%TO.N,/DCMI_D5*%
X153912000Y-113942000D03*
%TO.P,IC1,59,PB7*%
%TO.N,/DCMI_VSYNC*%
X154412000Y-113942000D03*
%TO.P,IC1,60,PH3-BOOT0*%
%TO.N,Net-(IC1-Pad60)*%
X154912000Y-113942000D03*
%TO.P,IC1,61,PB8*%
%TO.N,/DCMI_D6*%
X155412000Y-113942000D03*
%TO.P,IC1,62,PB9*%
%TO.N,/DCMI_D7*%
X155912000Y-113942000D03*
%TO.P,IC1,63,VSS_4*%
%TO.N,GND*%
X156412000Y-113942000D03*
%TO.P,IC1,64,VDD_3*%
%TO.N,/VDD_FILT*%
X156912000Y-113942000D03*
%TD*%
D16*
%TO.P,R3,1*%
%TO.N,Net-(IC1-Pad60)*%
X153746400Y-120243600D03*
%TO.P,R3,2*%
%TO.N,GND*%
X155346400Y-120243600D03*
%TD*%
%TO.P,R2,1*%
%TO.N,/LED2*%
X152552400Y-116687600D03*
%TO.P,R2,2*%
%TO.N,Net-(LED2-Pad2)*%
X150952400Y-116687600D03*
%TD*%
%TO.P,R1,1*%
%TO.N,/LED1*%
X148945600Y-116687600D03*
%TO.P,R1,2*%
%TO.N,Net-(LED1-Pad2)*%
X147345600Y-116687600D03*
%TD*%
D28*
%TO.P,J1,1,Pin_1*%
%TO.N,unconnected-(J1-Pad1)*%
X135950000Y-88950000D03*
%TO.P,J1,2,Pin_2*%
%TO.N,unconnected-(J1-Pad2)*%
X138490000Y-88950000D03*
%TO.P,J1,3,Pin_3*%
%TO.N,GND*%
X141030000Y-88950000D03*
%TO.P,J1,4,Pin_4*%
%TO.N,unconnected-(J1-Pad4)*%
X143570000Y-88950000D03*
%TO.P,J1,5,Pin_5*%
%TO.N,unconnected-(J1-Pad5)*%
X146110000Y-88950000D03*
%TO.P,J1,6,Pin_6*%
%TO.N,unconnected-(J1-Pad6)*%
X148650000Y-88950000D03*
%TO.P,J1,7,Pin_7*%
%TO.N,/NRST*%
X151190000Y-88950000D03*
%TO.P,J1,8,Pin_8*%
%TO.N,/USART1_CK*%
X153730000Y-88950000D03*
%TO.P,J1,9,Pin_9*%
%TO.N,/USART1_CTS*%
X156270000Y-88950000D03*
%TO.P,J1,10,Pin_10*%
%TO.N,/USART1_TX*%
X158810000Y-88950000D03*
%TO.P,J1,11,Pin_11*%
%TO.N,/USART1_RX*%
X161350000Y-88950000D03*
%TO.P,J1,12,Pin_12*%
%TO.N,/USART1_RTS*%
X163890000Y-88950000D03*
%TO.P,J1,13,Pin_13*%
%TO.N,unconnected-(J1-Pad13)*%
X166430000Y-88950000D03*
%TO.P,J1,14,Pin_14*%
%TO.N,unconnected-(J1-Pad14)*%
X168970000Y-88950000D03*
%TO.P,J1,15,Pin_15*%
%TO.N,unconnected-(J1-Pad15)*%
X171510000Y-88950000D03*
%TO.P,J1,16,Pin_16*%
%TO.N,unconnected-(J1-Pad16)*%
X174050000Y-88950000D03*
%TD*%
D20*
%TO.P,C16,1*%
%TO.N,GND*%
X141528800Y-94346800D03*
%TO.P,C16,2*%
%TO.N,/VBUS*%
X141528800Y-95746800D03*
%TD*%
D29*
%TO.P,IC2,1,CE#*%
%TO.N,/QUADSPI_BK1_NCS*%
X156792800Y-95275400D03*
%TO.P,IC2,2,SO(IO1)*%
%TO.N,/QUADSPI_BK2_IO1*%
X156792800Y-96545400D03*
%TO.P,IC2,3,WP#(IO2)*%
%TO.N,/QUADSPI_BK2_IO2*%
X156792800Y-97815400D03*
%TO.P,IC2,4,GND*%
%TO.N,GND*%
X156792800Y-99085400D03*
%TO.P,IC2,5,SI(IO0)*%
%TO.N,/QUADSPI_BK2_IO0*%
X163856800Y-99085400D03*
%TO.P,IC2,6,SCK*%
%TO.N,/QUADSPI_CLK*%
X163856800Y-97815400D03*
%TO.P,IC2,7,HOLD#_OR__RESET#(IO3)*%
%TO.N,/QUADSPI_BK2_IO3*%
X163856800Y-96545400D03*
%TO.P,IC2,8,VCC*%
%TO.N,/VDD_FILT*%
X163856800Y-95275400D03*
%TD*%
D30*
%TO.P,C8,1*%
%TO.N,/VDD_FILT*%
X164044400Y-102158800D03*
%TO.P,C8,2*%
%TO.N,GND*%
X165444400Y-102158800D03*
%TD*%
D22*
%TO.P,LED2,1,K*%
%TO.N,GND*%
X148082000Y-122466800D03*
%TO.P,LED2,2,A*%
%TO.N,Net-(LED2-Pad2)*%
X148082000Y-120966800D03*
%TD*%
D31*
%TO.P,C15,1*%
%TO.N,/VBAT*%
X162190400Y-121564400D03*
%TO.P,C15,2*%
%TO.N,GND*%
X166790400Y-121564400D03*
%TD*%
D16*
%TO.P,R5,1*%
%TO.N,/VDD_FILT*%
X161086800Y-91338400D03*
%TO.P,R5,2*%
%TO.N,/QUADSPI_BK1_NCS*%
X159486800Y-91338400D03*
%TD*%
%TO.P,C12,1*%
%TO.N,Net-(C12-Pad1)*%
X166381200Y-113538000D03*
%TO.P,C12,2*%
%TO.N,GND*%
X167781200Y-113538000D03*
%TD*%
D28*
%TO.P,J4,1,Pin_1*%
%TO.N,VDD*%
X135950000Y-116890000D03*
%TO.P,J4,2,Pin_2*%
%TO.N,GND*%
X135950000Y-119430000D03*
%TO.P,J4,3,Pin_3*%
%TO.N,/SWDIO*%
X135950000Y-121970000D03*
%TO.P,J4,4,Pin_4*%
%TO.N,/SWCLK*%
X135950000Y-124510000D03*
%TD*%
D20*
%TO.P,C2,1*%
%TO.N,/VDD_FILT*%
X149402800Y-100166400D03*
%TO.P,C2,2*%
%TO.N,GND*%
X149402800Y-98766400D03*
%TD*%
D16*
%TO.P,C1,1*%
%TO.N,/VDD_FILT*%
X140552400Y-119430800D03*
%TO.P,C1,2*%
%TO.N,GND*%
X139152400Y-119430800D03*
%TD*%
%TO.P,R4,1*%
%TO.N,/BOOT0*%
X155346400Y-123037600D03*
%TO.P,R4,2*%
%TO.N,Net-(IC1-Pad60)*%
X153746400Y-123037600D03*
%TD*%
D28*
%TO.P,J8,1,Pin_1*%
%TO.N,/DCMI_D0*%
X174040800Y-114300000D03*
%TO.P,J8,2,Pin_2*%
%TO.N,/DCMI_D1*%
X171500800Y-114300000D03*
%TO.P,J8,3,Pin_3*%
%TO.N,/DCMI_D2*%
X174040800Y-111760000D03*
%TO.P,J8,4,Pin_4*%
%TO.N,/DCMI_D3*%
X171500800Y-111760000D03*
%TO.P,J8,5,Pin_5*%
%TO.N,/DCMI_D4*%
X174040800Y-109220000D03*
%TO.P,J8,6,Pin_6*%
%TO.N,/DCMI_D5*%
X171500800Y-109220000D03*
%TO.P,J8,7,Pin_7*%
%TO.N,/DCMI_D6*%
X174040800Y-106680000D03*
%TO.P,J8,8,Pin_8*%
%TO.N,/DCMI_D7*%
X171500800Y-106680000D03*
%TO.P,J8,9,Pin_9*%
%TO.N,unconnected-(J8-Pad9)*%
X174040800Y-104140000D03*
%TO.P,J8,10,Pin_10*%
%TO.N,/DCMI_PIXCLK*%
X171500800Y-104140000D03*
%TO.P,J8,11,Pin_11*%
%TO.N,/DCMI_HSYNC*%
X174040800Y-101600000D03*
%TO.P,J8,12,Pin_12*%
%TO.N,/DCMI_VSYNC*%
X171500800Y-101600000D03*
%TD*%
%TO.P,J3,1,Pin_1*%
%TO.N,unconnected-(J3-Pad1)*%
X135950000Y-99110000D03*
%TO.P,J3,2,Pin_2*%
%TO.N,GND*%
X135950000Y-96570000D03*
%TO.P,J3,3,Pin_3*%
%TO.N,unconnected-(J3-Pad3)*%
X135950000Y-94030000D03*
%TO.P,J3,4,Pin_4*%
%TO.N,unconnected-(J3-Pad4)*%
X135950000Y-91490000D03*
%TD*%
D16*
%TO.P,C10,1*%
%TO.N,Net-(C10-Pad1)*%
X166381200Y-108051600D03*
%TO.P,C10,2*%
%TO.N,GND*%
X167781200Y-108051600D03*
%TD*%
%TO.P,C4,1*%
%TO.N,/VDD_FILT*%
X156932400Y-117348000D03*
%TO.P,C4,2*%
%TO.N,GND*%
X158332400Y-117348000D03*
%TD*%
D28*
%TO.P,J5,1,Pin_1*%
%TO.N,unconnected-(J5-Pad1)*%
X171510000Y-99110000D03*
%TO.P,J5,2,Pin_2*%
%TO.N,unconnected-(J5-Pad2)*%
X174050000Y-99110000D03*
%TO.P,J5,3,Pin_3*%
%TO.N,unconnected-(J5-Pad3)*%
X174050000Y-96570000D03*
%TO.P,J5,4,Pin_4*%
%TO.N,unconnected-(J5-Pad4)*%
X174050000Y-94030000D03*
%TO.P,J5,5,Pin_5*%
%TO.N,unconnected-(J5-Pad5)*%
X174050000Y-91490000D03*
%TD*%
%TO.P,J2,1,Pin_1*%
%TO.N,unconnected-(J2-Pad1)*%
X135950000Y-127050000D03*
%TO.P,J2,2,Pin_2*%
%TO.N,unconnected-(J2-Pad2)*%
X138490000Y-127050000D03*
%TO.P,J2,3,Pin_3*%
%TO.N,unconnected-(J2-Pad3)*%
X141030000Y-127050000D03*
%TO.P,J2,4,Pin_4*%
%TO.N,unconnected-(J2-Pad4)*%
X143570000Y-127050000D03*
%TO.P,J2,5,Pin_5*%
%TO.N,unconnected-(J2-Pad5)*%
X146110000Y-127050000D03*
%TO.P,J2,6,Pin_6*%
%TO.N,unconnected-(J2-Pad6)*%
X148650000Y-127050000D03*
%TO.P,J2,7,Pin_7*%
%TO.N,unconnected-(J2-Pad7)*%
X151190000Y-127050000D03*
%TO.P,J2,8,Pin_8*%
%TO.N,/BOOT0*%
X153730000Y-127050000D03*
%TO.P,J2,9,Pin_9*%
%TO.N,/LPUART_CTS*%
X156270000Y-127050000D03*
%TO.P,J2,10,Pin_10*%
%TO.N,/LPUART_TX*%
X158810000Y-127050000D03*
%TO.P,J2,11,Pin_11*%
%TO.N,/LPUART_RX*%
X161350000Y-127050000D03*
%TO.P,J2,12,Pin_12*%
%TO.N,/LPUART_RTS*%
X163890000Y-127050000D03*
%TO.P,J2,13,Pin_13*%
%TO.N,unconnected-(J2-Pad13)*%
X166430000Y-127050000D03*
%TO.P,J2,14,Pin_14*%
%TO.N,unconnected-(J2-Pad14)*%
X168970000Y-127050000D03*
%TO.P,J2,15,Pin_15*%
%TO.N,unconnected-(J2-Pad15)*%
X171510000Y-127050000D03*
%TO.P,J2,16,Pin_16*%
%TO.N,unconnected-(J2-Pad16)*%
X174050000Y-127050000D03*
%TD*%
D16*
%TO.P,C7,1*%
%TO.N,/VDD_FILT*%
X164044400Y-104038400D03*
%TO.P,C7,2*%
%TO.N,GND*%
X165444400Y-104038400D03*
%TD*%
D20*
%TO.P,R6,1*%
%TO.N,GND*%
X138684000Y-100088800D03*
%TO.P,R6,2*%
%TO.N,Net-(J9-PadA5)*%
X138684000Y-101688800D03*
%TD*%
%TO.P,C3,1*%
%TO.N,/VDD_FILT*%
X152298400Y-100166400D03*
%TO.P,C3,2*%
%TO.N,GND*%
X152298400Y-98766400D03*
%TD*%
D28*
%TO.P,J6,1,Pin_1*%
%TO.N,unconnected-(J6-Pad1)*%
X171500000Y-116890000D03*
%TO.P,J6,2,Pin_2*%
%TO.N,unconnected-(J6-Pad2)*%
X174040000Y-116890000D03*
%TO.P,J6,3,Pin_3*%
%TO.N,GND*%
X174040000Y-119430000D03*
%TO.P,J6,4,Pin_4*%
%TO.N,unconnected-(J6-Pad4)*%
X174040000Y-121970000D03*
%TO.P,J6,5,Pin_5*%
%TO.N,unconnected-(J6-Pad5)*%
X174040000Y-124510000D03*
%TD*%
D32*
%TO.N,GND*%
X142443200Y-122478800D03*
X160324800Y-106019600D03*
X168706800Y-108051600D03*
X140208000Y-98856800D03*
X138684000Y-99009200D03*
X168656000Y-113538000D03*
X143814800Y-93167200D03*
X156768800Y-99923600D03*
X168706800Y-116078000D03*
X149402800Y-97536000D03*
X168706800Y-110337600D03*
X164541200Y-108051600D03*
X156362400Y-120243600D03*
X152298400Y-97586800D03*
X169062400Y-121666000D03*
X166319200Y-104089200D03*
X149910800Y-101142800D03*
X150266400Y-122478800D03*
X141020800Y-105054400D03*
X141528800Y-93167200D03*
X146100800Y-111455200D03*
X166319200Y-102158800D03*
X159258000Y-117348000D03*
X160629600Y-110388400D03*
X143154400Y-115773200D03*
X162560000Y-103124000D03*
X163423600Y-105867200D03*
X162560000Y-101244400D03*
X140970000Y-111506000D03*
X156413200Y-101142800D03*
%TO.N,/VDD_FILT*%
X148183600Y-100177600D03*
X165404800Y-95300800D03*
X155752800Y-105867200D03*
X141732000Y-116890800D03*
X146100800Y-112522000D03*
X141528800Y-119481600D03*
X152146000Y-101092000D03*
X157480000Y-113944400D03*
X164033200Y-105054400D03*
X145135600Y-97942400D03*
%TO.N,/NRST*%
X157480000Y-108966000D03*
X153924000Y-92964000D03*
%TO.N,/VBUS*%
X138684000Y-110032800D03*
X141020800Y-105867200D03*
%TO.N,/DCMI_D7*%
X157073600Y-111252000D03*
%TO.N,/DCMI_D6*%
X155448000Y-111709200D03*
%TO.N,/DCMI_VSYNC*%
X155244800Y-110236000D03*
%TO.N,/DCMI_D5*%
X153924000Y-111760000D03*
%TO.N,/DCMI_D4*%
X150926800Y-112572800D03*
%TO.N,/USART1_RX*%
X148945600Y-109474000D03*
X162560000Y-90576400D03*
%TO.N,/USART1_TX*%
X148945600Y-108966000D03*
X158242000Y-90576400D03*
%TO.N,/USART1_CK*%
X148945600Y-108458000D03*
X153720800Y-90627200D03*
%TO.N,/DCMI_D3*%
X153873200Y-107899200D03*
%TO.N,/DCMI_D2*%
X153111200Y-107442000D03*
%TO.N,/DCMI_D1*%
X152400000Y-106934000D03*
%TO.N,/DCMI_D0*%
X151536400Y-106476800D03*
%TO.N,/LPUART_CTS*%
X144983200Y-104952800D03*
%TO.N,/LPUART_RTS*%
X145542000Y-104444800D03*
%TO.N,/LPUART_TX*%
X145719800Y-107975400D03*
%TO.N,/LPUART_RX*%
X145643600Y-106680000D03*
%TO.N,/QUADSPI_BK2_IO3*%
X153416000Y-104089200D03*
X165404800Y-96621600D03*
%TO.N,/DCMI_PIXCLK*%
X156362400Y-109931200D03*
%TO.N,/DCMI_HSYNC*%
X157073600Y-110490000D03*
%TO.N,/QUADSPI_CLK*%
X156921200Y-105105200D03*
X165404800Y-97840800D03*
%TO.N,/QUADSPI_BK2_IO2*%
X156260800Y-106984800D03*
X155295600Y-97840800D03*
%TO.N,/QUADSPI_BK2_IO1*%
X155168600Y-107416600D03*
X155295600Y-96570800D03*
%TO.N,/QUADSPI_BK2_IO0*%
X165404800Y-99110800D03*
X157175200Y-107950000D03*
%TO.N,Net-(J9-PadA5)*%
X141528800Y-107035600D03*
X139903200Y-101701600D03*
%TD*%
D33*
%TO.N,GND*%
X156412000Y-101144000D02*
X156412000Y-102466000D01*
X158900000Y-106454000D02*
X159890400Y-106454000D01*
X163560800Y-108070000D02*
X164522800Y-108070000D01*
X167781200Y-108051600D02*
X168706800Y-108051600D01*
X159523200Y-93167200D02*
X159523200Y-96930000D01*
X166790400Y-121564400D02*
X168960800Y-121564400D01*
X143154400Y-114744400D02*
X143154400Y-115773200D01*
X162548800Y-105816400D02*
X163372800Y-105816400D01*
X161660800Y-110370000D02*
X160648000Y-110370000D01*
X140921791Y-111457791D02*
X140970000Y-111506000D01*
X146102000Y-111454000D02*
X146100800Y-111455200D01*
X167832000Y-116078000D02*
X168706800Y-116078000D01*
X168960800Y-121564400D02*
X169062400Y-121666000D01*
X141508900Y-98856800D02*
X140208000Y-98856800D01*
X147424000Y-111454000D02*
X146102000Y-111454000D01*
X162548800Y-101255600D02*
X162560000Y-101244400D01*
X142455200Y-122466800D02*
X142443200Y-122478800D01*
X162548800Y-104038400D02*
X162548800Y-103135200D01*
X144475200Y-122466800D02*
X142455200Y-122466800D01*
X156792800Y-99899600D02*
X156768800Y-99923600D01*
X152298400Y-98766400D02*
X152298400Y-97586800D01*
X149912000Y-101144000D02*
X149912000Y-102466000D01*
X166268400Y-104038400D02*
X166319200Y-104089200D01*
X139152400Y-119430800D02*
X135950800Y-119430800D01*
X158332400Y-117348000D02*
X159258000Y-117348000D01*
X149402800Y-98766400D02*
X149402800Y-97536000D01*
X167781200Y-113538000D02*
X168656000Y-113538000D01*
X159890400Y-106454000D02*
X160324800Y-106019600D01*
X163372800Y-105816400D02*
X163423600Y-105867200D01*
X141017396Y-105057804D02*
X141020800Y-105054400D01*
X150254400Y-122466800D02*
X150266400Y-122478800D01*
X149910800Y-101142800D02*
X149912000Y-101144000D01*
X139915006Y-105057804D02*
X141017396Y-105057804D01*
X167781200Y-110337600D02*
X168706800Y-110337600D01*
X141528800Y-94346800D02*
X141528800Y-93167200D01*
X148082000Y-122466800D02*
X150254400Y-122466800D01*
X143814800Y-94346800D02*
X143814800Y-93167200D01*
X162548800Y-103135200D02*
X162560000Y-103124000D01*
X165444400Y-104038400D02*
X166268400Y-104038400D01*
X155346400Y-120243600D02*
X156362400Y-120243600D01*
X139915006Y-111457791D02*
X140921791Y-111457791D01*
X156413200Y-101142800D02*
X156412000Y-101144000D01*
X160648000Y-110370000D02*
X160629600Y-110388400D01*
X159523200Y-96930000D02*
X157367800Y-99085400D01*
X165444400Y-102158800D02*
X166319200Y-102158800D01*
X156792800Y-99085400D02*
X156792800Y-99899600D01*
X157367800Y-99085400D02*
X156792800Y-99085400D01*
X162548800Y-102158800D02*
X162548800Y-101255600D01*
X164522800Y-108070000D02*
X164541200Y-108051600D01*
X135950800Y-119430800D02*
X135950000Y-119430000D01*
X138684000Y-100088800D02*
X138684000Y-99009200D01*
%TO.N,/VDD_FILT*%
X143814800Y-97875900D02*
X143814800Y-95746800D01*
X152298400Y-100166400D02*
X154469400Y-100166400D01*
X157477600Y-113942000D02*
X157480000Y-113944400D01*
X159757000Y-105954000D02*
X160223200Y-105487800D01*
X155839600Y-105954000D02*
X155752800Y-105867200D01*
X140552400Y-119430800D02*
X141478000Y-119430800D01*
X161148800Y-102158800D02*
X161148800Y-101385600D01*
X164044400Y-104038400D02*
X164044400Y-105043200D01*
X161148800Y-104038400D02*
X161148800Y-102158800D01*
X164044400Y-102158800D02*
X164044400Y-104038400D01*
X163856800Y-95275400D02*
X165379400Y-95275400D01*
X163856800Y-94108400D02*
X161086800Y-91338400D01*
X146100800Y-112522000D02*
X146668800Y-111954000D01*
X152298400Y-100939600D02*
X152146000Y-101092000D01*
X145100000Y-97906800D02*
X145135600Y-97942400D01*
X163856800Y-95275400D02*
X163856800Y-94108400D01*
X163525200Y-100787200D02*
X164044400Y-101306400D01*
X165379400Y-95275400D02*
X165404800Y-95300800D01*
X143783900Y-97906800D02*
X143814800Y-97875900D01*
X161748600Y-93167200D02*
X163856800Y-95275400D01*
X149402800Y-100166400D02*
X148194800Y-100166400D01*
X154469400Y-100166400D02*
X155912000Y-101609000D01*
X158900000Y-105954000D02*
X155839600Y-105954000D01*
X148194800Y-100166400D02*
X148183600Y-100177600D01*
X149402800Y-102456800D02*
X149412000Y-102466000D01*
X160223200Y-104749600D02*
X160934400Y-104038400D01*
X164044400Y-101306400D02*
X164044400Y-102158800D01*
X161148800Y-101385600D02*
X161747200Y-100787200D01*
X164044400Y-105043200D02*
X164033200Y-105054400D01*
X149402800Y-100166400D02*
X149402800Y-102456800D01*
X160934400Y-104038400D02*
X161148800Y-104038400D01*
X152298400Y-100166400D02*
X152298400Y-100939600D01*
X161747200Y-100787200D02*
X163525200Y-100787200D01*
X160923200Y-93167200D02*
X161748600Y-93167200D01*
X158900000Y-105954000D02*
X159757000Y-105954000D01*
X156912000Y-113942000D02*
X157477600Y-113942000D01*
X160223200Y-105487800D02*
X160223200Y-104749600D01*
X156932400Y-113962400D02*
X156912000Y-113942000D01*
X141478000Y-119430800D02*
X141528800Y-119481600D01*
X156932400Y-117348000D02*
X156932400Y-113962400D01*
X155912000Y-101609000D02*
X155912000Y-102466000D01*
X143783900Y-97906800D02*
X145100000Y-97906800D01*
X140601600Y-116890800D02*
X141732000Y-116890800D01*
X146668800Y-111954000D02*
X147424000Y-111954000D01*
%TO.N,/NRST*%
X160274000Y-106691200D02*
X160274000Y-108305600D01*
X159625600Y-108954000D02*
X158900000Y-108954000D01*
X161148800Y-105816400D02*
X160274000Y-106691200D01*
X153924000Y-92964000D02*
X153924000Y-91684000D01*
X157492000Y-108954000D02*
X157480000Y-108966000D01*
X153924000Y-91684000D02*
X151190000Y-88950000D01*
X160274000Y-108305600D02*
X159625600Y-108954000D01*
X158900000Y-108954000D02*
X157492000Y-108954000D01*
%TO.N,Net-(C10-Pad1)*%
X161660800Y-107630000D02*
X162407600Y-106883200D01*
X165212800Y-106883200D02*
X166381200Y-108051600D01*
X162407600Y-106883200D02*
X165212800Y-106883200D01*
X160276800Y-109454000D02*
X158900000Y-109454000D01*
X161660800Y-108070000D02*
X160276800Y-109454000D01*
X161660800Y-108070000D02*
X161660800Y-107630000D01*
%TO.N,Net-(C11-Pad1)*%
X163560800Y-110370000D02*
X166348800Y-110370000D01*
X161137600Y-109270800D02*
X160454400Y-109954000D01*
X163560800Y-110370000D02*
X162461600Y-109270800D01*
X166348800Y-110370000D02*
X166381200Y-110337600D01*
X162461600Y-109270800D02*
X161137600Y-109270800D01*
X160454400Y-109954000D02*
X158900000Y-109954000D01*
%TO.N,Net-(C12-Pad1)*%
X166381200Y-113538000D02*
X162514200Y-113538000D01*
X162509200Y-113533000D02*
X162509200Y-112956000D01*
X162509200Y-112956000D02*
X160007200Y-110454000D01*
X160007200Y-110454000D02*
X158900000Y-110454000D01*
X162514200Y-113538000D02*
X162509200Y-113533000D01*
%TO.N,Net-(C13-Pad1)*%
X160324800Y-111642800D02*
X159636000Y-110954000D01*
X160324800Y-113944400D02*
X160324800Y-111642800D01*
X162463400Y-116083000D02*
X160324800Y-113944400D01*
X162509200Y-116083000D02*
X162463400Y-116083000D01*
X162509200Y-116083000D02*
X166427000Y-116083000D01*
X159636000Y-110954000D02*
X158900000Y-110954000D01*
X166427000Y-116083000D02*
X166432000Y-116078000D01*
%TO.N,/VBAT*%
X162190400Y-121564400D02*
X162190400Y-118502400D01*
X158900000Y-115212000D02*
X158900000Y-111954000D01*
X162190400Y-118502400D02*
X158900000Y-115212000D01*
%TO.N,/VBUS*%
X142494000Y-98501200D02*
X141899600Y-97906800D01*
X139308992Y-110657792D02*
X138684000Y-110032800D01*
X141508900Y-105379100D02*
X141508900Y-99806800D01*
X141508900Y-99806800D02*
X141702940Y-99806800D01*
X141020800Y-105867200D02*
X141508900Y-105379100D01*
X141899600Y-97906800D02*
X141508900Y-97906800D01*
X139915006Y-110657792D02*
X139766513Y-110509299D01*
X141508900Y-97906800D02*
X141528800Y-97886900D01*
X139915006Y-110657792D02*
X139308992Y-110657792D01*
X141702940Y-99806800D02*
X142494000Y-99015740D01*
X141528800Y-97886900D02*
X141528800Y-95746800D01*
X141011402Y-105857802D02*
X141020800Y-105867200D01*
X139915006Y-105857802D02*
X141011402Y-105857802D01*
X142494000Y-99015740D02*
X142494000Y-98501200D01*
%TO.N,VDD*%
X135950800Y-116890800D02*
X135950000Y-116890000D01*
X139001600Y-116890800D02*
X135950800Y-116890800D01*
%TO.N,/DCMI_D7*%
X155912000Y-112413600D02*
X157073600Y-111252000D01*
X155912000Y-113942000D02*
X155912000Y-112413600D01*
%TO.N,/DCMI_D6*%
X155412000Y-111745200D02*
X155412000Y-113942000D01*
X155448000Y-111709200D02*
X155412000Y-111745200D01*
%TO.N,Net-(IC1-Pad60)*%
X153746400Y-120243600D02*
X153746400Y-123037600D01*
X154912000Y-119078000D02*
X153746400Y-120243600D01*
X154912000Y-113942000D02*
X154912000Y-119078000D01*
%TO.N,/DCMI_VSYNC*%
X154412000Y-113942000D02*
X154412000Y-110874754D01*
X154412000Y-110874754D02*
X155054054Y-110232700D01*
%TO.N,/DCMI_D5*%
X153912000Y-111772000D02*
X153912000Y-113942000D01*
X153924000Y-111760000D02*
X153912000Y-111772000D01*
%TO.N,/LED2*%
X151412000Y-115547200D02*
X151412000Y-113942000D01*
X152552400Y-116687600D02*
X151412000Y-115547200D01*
%TO.N,/DCMI_D4*%
X150912000Y-112587600D02*
X150912000Y-113942000D01*
X150926800Y-112572800D02*
X150912000Y-112587600D01*
%TO.N,/LED1*%
X150412000Y-115221200D02*
X150412000Y-113942000D01*
X148945600Y-116687600D02*
X150412000Y-115221200D01*
%TO.N,/SWCLK*%
X149412000Y-113942000D02*
X148860200Y-113942000D01*
X138292200Y-124510000D02*
X135950000Y-124510000D01*
X148860200Y-113942000D02*
X138292200Y-124510000D01*
%TO.N,/SWDIO*%
X147424000Y-110954000D02*
X146567000Y-110954000D01*
X144272000Y-118059200D02*
X140361200Y-121970000D01*
X140361200Y-121970000D02*
X135950000Y-121970000D01*
X146560200Y-110947200D02*
X145440400Y-110947200D01*
X144272000Y-112115600D02*
X144272000Y-118059200D01*
X146567000Y-110954000D02*
X146560200Y-110947200D01*
X145440400Y-110947200D02*
X144272000Y-112115600D01*
%TO.N,/D+*%
X138785600Y-108712000D02*
X138785600Y-108435195D01*
X139914995Y-109007800D02*
X140453000Y-109007800D01*
X139081400Y-109007800D02*
X138785600Y-108712000D01*
X141899200Y-110454000D02*
X147424000Y-110454000D01*
X138785600Y-108435195D02*
X139212995Y-108007800D01*
X140453000Y-109007800D02*
X141899200Y-110454000D01*
X139212995Y-108007800D02*
X139914995Y-108007800D01*
X139914995Y-109007800D02*
X139081400Y-109007800D01*
%TO.N,/D-*%
X140616995Y-108507800D02*
X140919200Y-108205595D01*
X140919200Y-108205595D02*
X140919200Y-107848400D01*
X140578600Y-107507800D02*
X139914995Y-107507800D01*
X139914995Y-108507800D02*
X140616995Y-108507800D01*
X142063195Y-109954000D02*
X140616995Y-108507800D01*
X147424000Y-109954000D02*
X142063195Y-109954000D01*
X140919200Y-107848400D02*
X140578600Y-107507800D01*
%TO.N,/USART1_RX*%
X162560000Y-90160000D02*
X161350000Y-88950000D01*
X162560000Y-90576400D02*
X162560000Y-90160000D01*
X148925600Y-109454000D02*
X148945600Y-109474000D01*
X147424000Y-109454000D02*
X148925600Y-109454000D01*
%TO.N,/USART1_TX*%
X148933600Y-108954000D02*
X148945600Y-108966000D01*
X158242000Y-89518000D02*
X158810000Y-88950000D01*
X147424000Y-108954000D02*
X148933600Y-108954000D01*
X158242000Y-90576400D02*
X158242000Y-89518000D01*
%TO.N,/USART1_CK*%
X153730000Y-90618000D02*
X153730000Y-88950000D01*
X148941600Y-108454000D02*
X148945600Y-108458000D01*
X153720800Y-90627200D02*
X153730000Y-90618000D01*
X147424000Y-108454000D02*
X148941600Y-108454000D01*
%TO.N,/DCMI_D3*%
X153818400Y-107954000D02*
X147424000Y-107954000D01*
X153873200Y-107899200D02*
X153818400Y-107954000D01*
%TO.N,/DCMI_D2*%
X153099200Y-107454000D02*
X147424000Y-107454000D01*
X153111200Y-107442000D02*
X153099200Y-107454000D01*
%TO.N,/DCMI_D1*%
X152400000Y-106934000D02*
X152380000Y-106954000D01*
X152380000Y-106954000D02*
X147424000Y-106954000D01*
%TO.N,/DCMI_D0*%
X151513600Y-106454000D02*
X147424000Y-106454000D01*
X151536400Y-106476800D02*
X151513600Y-106454000D01*
%TO.N,/LPUART_CTS*%
X144983200Y-104952800D02*
X144932400Y-104902000D01*
X147424000Y-104954000D02*
X144984400Y-104954000D01*
X144984400Y-104954000D02*
X144983200Y-104952800D01*
%TO.N,/LPUART_RTS*%
X147424000Y-104454000D02*
X145551200Y-104454000D01*
X145551200Y-104454000D02*
X145542000Y-104444800D01*
%TO.N,/LPUART_TX*%
X144678400Y-103428800D02*
X150306200Y-103428800D01*
X143306800Y-106730800D02*
X143306800Y-104800400D01*
X150306200Y-103428800D02*
X150412000Y-103323000D01*
X145719800Y-107975400D02*
X144551400Y-107975400D01*
X150412000Y-103323000D02*
X150412000Y-102466000D01*
X143306800Y-104800400D02*
X144678400Y-103428800D01*
X144551400Y-107975400D02*
X143306800Y-106730800D01*
%TO.N,/LPUART_RX*%
X144119600Y-105156000D02*
X144119600Y-104698800D01*
X145034000Y-103784400D02*
X144119600Y-104698800D01*
X145643600Y-106680000D02*
X144119600Y-105156000D01*
X150912000Y-103323000D02*
X150450600Y-103784400D01*
X150912000Y-102466000D02*
X150912000Y-103323000D01*
X150450600Y-103784400D02*
X145034000Y-103784400D01*
%TO.N,/QUADSPI_BK2_IO3*%
X153416000Y-104089200D02*
X153412000Y-104085200D01*
X165328600Y-96545400D02*
X165404800Y-96621600D01*
X153412000Y-104085200D02*
X153412000Y-102466000D01*
X163856800Y-96545400D02*
X165328600Y-96545400D01*
%TO.N,/DCMI_PIXCLK*%
X154412000Y-107980800D02*
X156362400Y-109931200D01*
X154412000Y-102466000D02*
X154412000Y-107980800D01*
%TO.N,/DCMI_HSYNC*%
X157073600Y-109991154D02*
X154686000Y-107603554D01*
X157073600Y-110490000D02*
X157073600Y-109991154D01*
X155412000Y-103820400D02*
X155412000Y-102466000D01*
X154686000Y-107603554D02*
X154686000Y-104546400D01*
X154686000Y-104546400D02*
X155412000Y-103820400D01*
%TO.N,/QUADSPI_CLK*%
X156921200Y-105105200D02*
X156912000Y-105096000D01*
X163856800Y-97815400D02*
X165379400Y-97815400D01*
X156912000Y-105096000D02*
X156912000Y-102466000D01*
X165379400Y-97815400D02*
X165404800Y-97840800D01*
%TO.N,/QUADSPI_BK1_NCS*%
X159486800Y-91338400D02*
X156792800Y-94032400D01*
X155575000Y-95275400D02*
X154584400Y-96266000D01*
X156792800Y-94032400D02*
X156792800Y-95275400D01*
X156792800Y-95275400D02*
X155575000Y-95275400D01*
X154584400Y-96266000D02*
X154584400Y-98662754D01*
X158900000Y-102978354D02*
X158900000Y-104454000D01*
X154584400Y-98662754D02*
X158900000Y-102978354D01*
%TO.N,/QUADSPI_BK2_IO2*%
X156260800Y-106984800D02*
X156291600Y-106954000D01*
X156291600Y-106954000D02*
X158900000Y-106954000D01*
X155321000Y-97815400D02*
X155295600Y-97840800D01*
X156792800Y-97815400D02*
X155321000Y-97815400D01*
%TO.N,/QUADSPI_BK2_IO1*%
X156792800Y-96545400D02*
X155321000Y-96545400D01*
X155168600Y-107416600D02*
X155206000Y-107454000D01*
X155321000Y-96545400D02*
X155295600Y-96570800D01*
X155206000Y-107454000D02*
X158900000Y-107454000D01*
%TO.N,/QUADSPI_BK2_IO0*%
X163856800Y-99085400D02*
X165379400Y-99085400D01*
X157179200Y-107954000D02*
X158900000Y-107954000D01*
X157175200Y-107950000D02*
X157179200Y-107954000D01*
X165379400Y-99085400D02*
X165404800Y-99110800D01*
%TO.N,/BOOT0*%
X155346400Y-125433600D02*
X153730000Y-127050000D01*
X155346400Y-123037600D02*
X155346400Y-125433600D01*
%TO.N,Net-(J9-PadA5)*%
X139903200Y-101701600D02*
X138696800Y-101701600D01*
X139914995Y-107007800D02*
X141501000Y-107007800D01*
X138696800Y-101701600D02*
X138684000Y-101688800D01*
X141501000Y-107007800D02*
X141528800Y-107035600D01*
%TO.N,Net-(J9-PadB5)*%
X143154400Y-112725200D02*
X140512800Y-110083600D01*
X143154400Y-113144400D02*
X143154400Y-112725200D01*
%TO.N,Net-(LED1-Pad2)*%
X147345600Y-116687600D02*
X147345600Y-118096400D01*
X147345600Y-118096400D02*
X144475200Y-120966800D01*
%TO.N,Net-(LED2-Pad2)*%
X148082000Y-119558000D02*
X150952400Y-116687600D01*
X148082000Y-120966800D02*
X148082000Y-119558000D01*
%TD*%
M02*
