%TF.GenerationSoftware,KiCad,Pcbnew,(6.0.6)*%
%TF.CreationDate,2024-09-09T22:51:05-04:00*%
%TF.ProjectId,ta-expt-v2,74612d65-7870-4742-9d76-322e6b696361,rev?*%
%TF.SameCoordinates,Original*%
%TF.FileFunction,Paste,Top*%
%TF.FilePolarity,Positive*%
%FSLAX46Y46*%
G04 Gerber Fmt 4.6, Leading zero omitted, Abs format (unit mm)*
G04 Created by KiCad (PCBNEW (6.0.6)) date 2024-09-09 22:51:05*
%MOMM*%
%LPD*%
G01*
G04 APERTURE LIST*
G04 Aperture macros list*
%AMRoundRect*
0 Rectangle with rounded corners*
0 $1 Rounding radius*
0 $2 $3 $4 $5 $6 $7 $8 $9 X,Y pos of 4 corners*
0 Add a 4 corners polygon primitive as box body*
4,1,4,$2,$3,$4,$5,$6,$7,$8,$9,$2,$3,0*
0 Add four circle primitives for the rounded corners*
1,1,$1+$1,$2,$3*
1,1,$1+$1,$4,$5*
1,1,$1+$1,$6,$7*
1,1,$1+$1,$8,$9*
0 Add four rect primitives between the rounded corners*
20,1,$1+$1,$2,$3,$4,$5,0*
20,1,$1+$1,$4,$5,$6,$7,0*
20,1,$1+$1,$6,$7,$8,$9,0*
20,1,$1+$1,$8,$9,$2,$3,0*%
G04 Aperture macros list end*
%ADD10R,0.700000X1.000000*%
%ADD11R,1.150000X0.575000*%
%ADD12R,1.150000X0.275000*%
%ADD13R,1.000000X0.700000*%
%ADD14R,0.800000X1.000000*%
%ADD15R,0.700000X0.700000*%
%ADD16R,1.700000X0.900000*%
%ADD17R,1.000000X1.200000*%
%ADD18RoundRect,0.150000X-0.512500X-0.150000X0.512500X-0.150000X0.512500X0.150000X-0.512500X0.150000X0*%
%ADD19R,1.460000X0.250000*%
%ADD20R,0.250000X1.460000*%
%ADD21R,1.750000X0.600000*%
%ADD22R,0.700000X0.940000*%
%ADD23R,2.200000X6.400000*%
G04 APERTURE END LIST*
D10*
%TO.C,C14*%
X160923200Y-93167200D03*
X159523200Y-93167200D03*
%TD*%
D11*
%TO.C,J9*%
X139915006Y-105057804D03*
X139915006Y-105857802D03*
D12*
X139914995Y-107007800D03*
X139914995Y-108007800D03*
X139914995Y-108507800D03*
X139914995Y-109507800D03*
D11*
X139915006Y-111457791D03*
X139915006Y-110657792D03*
D12*
X139914995Y-110007800D03*
X139914995Y-109007800D03*
X139914995Y-107507800D03*
X139914995Y-106507800D03*
%TD*%
D13*
%TO.C,C17*%
X143814800Y-95746800D03*
X143814800Y-94346800D03*
%TD*%
D14*
%TO.C,FB1*%
X139001600Y-116890800D03*
X140601600Y-116890800D03*
%TD*%
D15*
%TO.C,LED1*%
X144475200Y-122466800D03*
X144475200Y-120966800D03*
%TD*%
D10*
%TO.C,C11*%
X166381200Y-110337600D03*
X167781200Y-110337600D03*
%TD*%
%TO.C,C5*%
X161148800Y-102158800D03*
X162548800Y-102158800D03*
%TD*%
%TO.C,C6*%
X161148800Y-104038400D03*
X162548800Y-104038400D03*
%TD*%
D16*
%TO.C,Y2*%
X162509200Y-116083000D03*
X162509200Y-113533000D03*
%TD*%
D10*
%TO.C,C9*%
X161148800Y-105816400D03*
X162548800Y-105816400D03*
%TD*%
D17*
%TO.C,Y1*%
X163560800Y-110370000D03*
X163560800Y-108070000D03*
X161660800Y-108070000D03*
X161660800Y-110370000D03*
%TD*%
D10*
%TO.C,C13*%
X166432000Y-116078000D03*
X167832000Y-116078000D03*
%TD*%
D18*
%TO.C,U1*%
X141508900Y-97906800D03*
X141508900Y-98856800D03*
X141508900Y-99806800D03*
X143783900Y-99806800D03*
X143783900Y-97906800D03*
%TD*%
D13*
%TO.C,R7*%
X143154400Y-114744400D03*
X143154400Y-113144400D03*
%TD*%
D19*
%TO.C,IC1*%
X158900000Y-111954000D03*
X158900000Y-111454000D03*
X158900000Y-110954000D03*
X158900000Y-110454000D03*
X158900000Y-109954000D03*
X158900000Y-109454000D03*
X158900000Y-108954000D03*
X158900000Y-108454000D03*
X158900000Y-107954000D03*
X158900000Y-107454000D03*
X158900000Y-106954000D03*
X158900000Y-106454000D03*
X158900000Y-105954000D03*
X158900000Y-105454000D03*
X158900000Y-104954000D03*
X158900000Y-104454000D03*
D20*
X156912000Y-102466000D03*
X156412000Y-102466000D03*
X155912000Y-102466000D03*
X155412000Y-102466000D03*
X154912000Y-102466000D03*
X154412000Y-102466000D03*
X153912000Y-102466000D03*
X153412000Y-102466000D03*
X152912000Y-102466000D03*
X152412000Y-102466000D03*
X151912000Y-102466000D03*
X151412000Y-102466000D03*
X150912000Y-102466000D03*
X150412000Y-102466000D03*
X149912000Y-102466000D03*
X149412000Y-102466000D03*
D19*
X147424000Y-104454000D03*
X147424000Y-104954000D03*
X147424000Y-105454000D03*
X147424000Y-105954000D03*
X147424000Y-106454000D03*
X147424000Y-106954000D03*
X147424000Y-107454000D03*
X147424000Y-107954000D03*
X147424000Y-108454000D03*
X147424000Y-108954000D03*
X147424000Y-109454000D03*
X147424000Y-109954000D03*
X147424000Y-110454000D03*
X147424000Y-110954000D03*
X147424000Y-111454000D03*
X147424000Y-111954000D03*
D20*
X149412000Y-113942000D03*
X149912000Y-113942000D03*
X150412000Y-113942000D03*
X150912000Y-113942000D03*
X151412000Y-113942000D03*
X151912000Y-113942000D03*
X152412000Y-113942000D03*
X152912000Y-113942000D03*
X153412000Y-113942000D03*
X153912000Y-113942000D03*
X154412000Y-113942000D03*
X154912000Y-113942000D03*
X155412000Y-113942000D03*
X155912000Y-113942000D03*
X156412000Y-113942000D03*
X156912000Y-113942000D03*
%TD*%
D10*
%TO.C,R3*%
X153746400Y-120243600D03*
X155346400Y-120243600D03*
%TD*%
%TO.C,R2*%
X152552400Y-116687600D03*
X150952400Y-116687600D03*
%TD*%
%TO.C,R1*%
X148945600Y-116687600D03*
X147345600Y-116687600D03*
%TD*%
D13*
%TO.C,C16*%
X141528800Y-94346800D03*
X141528800Y-95746800D03*
%TD*%
D21*
%TO.C,IC2*%
X156792800Y-95275400D03*
X156792800Y-96545400D03*
X156792800Y-97815400D03*
X156792800Y-99085400D03*
X163856800Y-99085400D03*
X163856800Y-97815400D03*
X163856800Y-96545400D03*
X163856800Y-95275400D03*
%TD*%
D22*
%TO.C,C8*%
X164044400Y-102158800D03*
X165444400Y-102158800D03*
%TD*%
D15*
%TO.C,LED2*%
X148082000Y-122466800D03*
X148082000Y-120966800D03*
%TD*%
D23*
%TO.C,C15*%
X162190400Y-121564400D03*
X166790400Y-121564400D03*
%TD*%
D10*
%TO.C,R5*%
X161086800Y-91338400D03*
X159486800Y-91338400D03*
%TD*%
%TO.C,C12*%
X166381200Y-113538000D03*
X167781200Y-113538000D03*
%TD*%
D13*
%TO.C,C2*%
X149402800Y-100166400D03*
X149402800Y-98766400D03*
%TD*%
D10*
%TO.C,C1*%
X140552400Y-119430800D03*
X139152400Y-119430800D03*
%TD*%
%TO.C,R4*%
X155346400Y-123037600D03*
X153746400Y-123037600D03*
%TD*%
%TO.C,C10*%
X166381200Y-108051600D03*
X167781200Y-108051600D03*
%TD*%
%TO.C,C4*%
X156932400Y-117348000D03*
X158332400Y-117348000D03*
%TD*%
%TO.C,C7*%
X164044400Y-104038400D03*
X165444400Y-104038400D03*
%TD*%
D13*
%TO.C,R6*%
X138684000Y-100088800D03*
X138684000Y-101688800D03*
%TD*%
%TO.C,C3*%
X152298400Y-100166400D03*
X152298400Y-98766400D03*
%TD*%
M02*
